<?xml version="1.0" encoding="utf-8" standalone="no"?>
<!DOCTYPE svg PUBLIC "-//W3C//DTD SVG 1.1//EN"
  "http://www.w3.org/Graphics/SVG/1.1/DTD/svg11.dtd">
<svg xmlns:xlink="http://www.w3.org/1999/xlink" width="608.98125pt" height="392.514375pt" viewBox="0 0 608.98125 392.514375" xmlns="http://www.w3.org/2000/svg" version="1.1">
 <metadata>
  <rdf:RDF xmlns:dc="http://purl.org/dc/elements/1.1/" xmlns:cc="http://creativecommons.org/ns#" xmlns:rdf="http://www.w3.org/1999/02/22-rdf-syntax-ns#">
   <cc:Work>
    <dc:type rdf:resource="http://purl.org/dc/dcmitype/StillImage"/>
    <dc:date>2023-05-28T12:56:06.057068</dc:date>
    <dc:format>image/svg+xml</dc:format>
    <dc:creator>
     <cc:Agent>
      <dc:title>Matplotlib v3.7.1, https://matplotlib.org/</dc:title>
     </cc:Agent>
    </dc:creator>
   </cc:Work>
  </rdf:RDF>
 </metadata>
 <defs>
  <style type="text/css">*{stroke-linejoin: round; stroke-linecap: butt}</style>
 </defs>
 <g id="figure_1">
  <g id="patch_1">
   <path d="M 0 392.514375 
L 608.98125 392.514375 
L 608.98125 0 
L 0 0 
z
" style="fill: #ffffff"/>
  </g>
  <g id="axes_1">
   <g id="patch_2">
    <path d="M 43.78125 354.958125 
L 601.78125 354.958125 
L 601.78125 22.318125 
L 43.78125 22.318125 
z
" style="fill: #ffffff"/>
   </g>
   <g id="matplotlib.axis_1">
    <g id="xtick_1">
     <g id="line2d_1">
      <path d="M 69.144886 354.958125 
L 69.144886 22.318125 
" clip-path="url(#p04ce2f9cf4)" style="fill: none; stroke: #b0b0b0; stroke-width: 0.8; stroke-linecap: square"/>
     </g>
     <g id="line2d_2">
      <defs>
       <path id="me394ec80ef" d="M 0 0 
L 0 3.5 
" style="stroke: #000000; stroke-width: 0.8"/>
      </defs>
      <g>
       <use xlink:href="#me394ec80ef" x="69.144886" y="354.958125" style="stroke: #000000; stroke-width: 0.8"/>
      </g>
     </g>
     <g id="text_1">
      <!-- 0 -->
      <g transform="translate(65.963636 369.556562) scale(0.1 -0.1)">
       <defs>
        <path id="DejaVuSans-30" d="M 2034 4250 
Q 1547 4250 1301 3770 
Q 1056 3291 1056 2328 
Q 1056 1369 1301 889 
Q 1547 409 2034 409 
Q 2525 409 2770 889 
Q 3016 1369 3016 2328 
Q 3016 3291 2770 3770 
Q 2525 4250 2034 4250 
z
M 2034 4750 
Q 2819 4750 3233 4129 
Q 3647 3509 3647 2328 
Q 3647 1150 3233 529 
Q 2819 -91 2034 -91 
Q 1250 -91 836 529 
Q 422 1150 422 2328 
Q 422 3509 836 4129 
Q 1250 4750 2034 4750 
z
" transform="scale(0.015625)"/>
       </defs>
       <use xlink:href="#DejaVuSans-30"/>
      </g>
     </g>
    </g>
    <g id="xtick_2">
     <g id="line2d_3">
      <path d="M 170.599432 354.958125 
L 170.599432 22.318125 
" clip-path="url(#p04ce2f9cf4)" style="fill: none; stroke: #b0b0b0; stroke-width: 0.8; stroke-linecap: square"/>
     </g>
     <g id="line2d_4">
      <g>
       <use xlink:href="#me394ec80ef" x="170.599432" y="354.958125" style="stroke: #000000; stroke-width: 0.8"/>
      </g>
     </g>
     <g id="text_2">
      <!-- 2000 -->
      <g transform="translate(157.874432 369.556562) scale(0.1 -0.1)">
       <defs>
        <path id="DejaVuSans-32" d="M 1228 531 
L 3431 531 
L 3431 0 
L 469 0 
L 469 531 
Q 828 903 1448 1529 
Q 2069 2156 2228 2338 
Q 2531 2678 2651 2914 
Q 2772 3150 2772 3378 
Q 2772 3750 2511 3984 
Q 2250 4219 1831 4219 
Q 1534 4219 1204 4116 
Q 875 4013 500 3803 
L 500 4441 
Q 881 4594 1212 4672 
Q 1544 4750 1819 4750 
Q 2544 4750 2975 4387 
Q 3406 4025 3406 3419 
Q 3406 3131 3298 2873 
Q 3191 2616 2906 2266 
Q 2828 2175 2409 1742 
Q 1991 1309 1228 531 
z
" transform="scale(0.015625)"/>
       </defs>
       <use xlink:href="#DejaVuSans-32"/>
       <use xlink:href="#DejaVuSans-30" x="63.623047"/>
       <use xlink:href="#DejaVuSans-30" x="127.246094"/>
       <use xlink:href="#DejaVuSans-30" x="190.869141"/>
      </g>
     </g>
    </g>
    <g id="xtick_3">
     <g id="line2d_5">
      <path d="M 272.053977 354.958125 
L 272.053977 22.318125 
" clip-path="url(#p04ce2f9cf4)" style="fill: none; stroke: #b0b0b0; stroke-width: 0.8; stroke-linecap: square"/>
     </g>
     <g id="line2d_6">
      <g>
       <use xlink:href="#me394ec80ef" x="272.053977" y="354.958125" style="stroke: #000000; stroke-width: 0.8"/>
      </g>
     </g>
     <g id="text_3">
      <!-- 4000 -->
      <g transform="translate(259.328977 369.556562) scale(0.1 -0.1)">
       <defs>
        <path id="DejaVuSans-34" d="M 2419 4116 
L 825 1625 
L 2419 1625 
L 2419 4116 
z
M 2253 4666 
L 3047 4666 
L 3047 1625 
L 3713 1625 
L 3713 1100 
L 3047 1100 
L 3047 0 
L 2419 0 
L 2419 1100 
L 313 1100 
L 313 1709 
L 2253 4666 
z
" transform="scale(0.015625)"/>
       </defs>
       <use xlink:href="#DejaVuSans-34"/>
       <use xlink:href="#DejaVuSans-30" x="63.623047"/>
       <use xlink:href="#DejaVuSans-30" x="127.246094"/>
       <use xlink:href="#DejaVuSans-30" x="190.869141"/>
      </g>
     </g>
    </g>
    <g id="xtick_4">
     <g id="line2d_7">
      <path d="M 373.508523 354.958125 
L 373.508523 22.318125 
" clip-path="url(#p04ce2f9cf4)" style="fill: none; stroke: #b0b0b0; stroke-width: 0.8; stroke-linecap: square"/>
     </g>
     <g id="line2d_8">
      <g>
       <use xlink:href="#me394ec80ef" x="373.508523" y="354.958125" style="stroke: #000000; stroke-width: 0.8"/>
      </g>
     </g>
     <g id="text_4">
      <!-- 6000 -->
      <g transform="translate(360.783523 369.556562) scale(0.1 -0.1)">
       <defs>
        <path id="DejaVuSans-36" d="M 2113 2584 
Q 1688 2584 1439 2293 
Q 1191 2003 1191 1497 
Q 1191 994 1439 701 
Q 1688 409 2113 409 
Q 2538 409 2786 701 
Q 3034 994 3034 1497 
Q 3034 2003 2786 2293 
Q 2538 2584 2113 2584 
z
M 3366 4563 
L 3366 3988 
Q 3128 4100 2886 4159 
Q 2644 4219 2406 4219 
Q 1781 4219 1451 3797 
Q 1122 3375 1075 2522 
Q 1259 2794 1537 2939 
Q 1816 3084 2150 3084 
Q 2853 3084 3261 2657 
Q 3669 2231 3669 1497 
Q 3669 778 3244 343 
Q 2819 -91 2113 -91 
Q 1303 -91 875 529 
Q 447 1150 447 2328 
Q 447 3434 972 4092 
Q 1497 4750 2381 4750 
Q 2619 4750 2861 4703 
Q 3103 4656 3366 4563 
z
" transform="scale(0.015625)"/>
       </defs>
       <use xlink:href="#DejaVuSans-36"/>
       <use xlink:href="#DejaVuSans-30" x="63.623047"/>
       <use xlink:href="#DejaVuSans-30" x="127.246094"/>
       <use xlink:href="#DejaVuSans-30" x="190.869141"/>
      </g>
     </g>
    </g>
    <g id="xtick_5">
     <g id="line2d_9">
      <path d="M 474.963068 354.958125 
L 474.963068 22.318125 
" clip-path="url(#p04ce2f9cf4)" style="fill: none; stroke: #b0b0b0; stroke-width: 0.8; stroke-linecap: square"/>
     </g>
     <g id="line2d_10">
      <g>
       <use xlink:href="#me394ec80ef" x="474.963068" y="354.958125" style="stroke: #000000; stroke-width: 0.8"/>
      </g>
     </g>
     <g id="text_5">
      <!-- 8000 -->
      <g transform="translate(462.238068 369.556562) scale(0.1 -0.1)">
       <defs>
        <path id="DejaVuSans-38" d="M 2034 2216 
Q 1584 2216 1326 1975 
Q 1069 1734 1069 1313 
Q 1069 891 1326 650 
Q 1584 409 2034 409 
Q 2484 409 2743 651 
Q 3003 894 3003 1313 
Q 3003 1734 2745 1975 
Q 2488 2216 2034 2216 
z
M 1403 2484 
Q 997 2584 770 2862 
Q 544 3141 544 3541 
Q 544 4100 942 4425 
Q 1341 4750 2034 4750 
Q 2731 4750 3128 4425 
Q 3525 4100 3525 3541 
Q 3525 3141 3298 2862 
Q 3072 2584 2669 2484 
Q 3125 2378 3379 2068 
Q 3634 1759 3634 1313 
Q 3634 634 3220 271 
Q 2806 -91 2034 -91 
Q 1263 -91 848 271 
Q 434 634 434 1313 
Q 434 1759 690 2068 
Q 947 2378 1403 2484 
z
M 1172 3481 
Q 1172 3119 1398 2916 
Q 1625 2713 2034 2713 
Q 2441 2713 2670 2916 
Q 2900 3119 2900 3481 
Q 2900 3844 2670 4047 
Q 2441 4250 2034 4250 
Q 1625 4250 1398 4047 
Q 1172 3844 1172 3481 
z
" transform="scale(0.015625)"/>
       </defs>
       <use xlink:href="#DejaVuSans-38"/>
       <use xlink:href="#DejaVuSans-30" x="63.623047"/>
       <use xlink:href="#DejaVuSans-30" x="127.246094"/>
       <use xlink:href="#DejaVuSans-30" x="190.869141"/>
      </g>
     </g>
    </g>
    <g id="xtick_6">
     <g id="line2d_11">
      <path d="M 576.417614 354.958125 
L 576.417614 22.318125 
" clip-path="url(#p04ce2f9cf4)" style="fill: none; stroke: #b0b0b0; stroke-width: 0.8; stroke-linecap: square"/>
     </g>
     <g id="line2d_12">
      <g>
       <use xlink:href="#me394ec80ef" x="576.417614" y="354.958125" style="stroke: #000000; stroke-width: 0.8"/>
      </g>
     </g>
     <g id="text_6">
      <!-- 10000 -->
      <g transform="translate(560.511364 369.556562) scale(0.1 -0.1)">
       <defs>
        <path id="DejaVuSans-31" d="M 794 531 
L 1825 531 
L 1825 4091 
L 703 3866 
L 703 4441 
L 1819 4666 
L 2450 4666 
L 2450 531 
L 3481 531 
L 3481 0 
L 794 0 
L 794 531 
z
" transform="scale(0.015625)"/>
       </defs>
       <use xlink:href="#DejaVuSans-31"/>
       <use xlink:href="#DejaVuSans-30" x="63.623047"/>
       <use xlink:href="#DejaVuSans-30" x="127.246094"/>
       <use xlink:href="#DejaVuSans-30" x="190.869141"/>
       <use xlink:href="#DejaVuSans-30" x="254.492188"/>
      </g>
     </g>
    </g>
    <g id="text_7">
     <!-- N -->
     <g transform="translate(319.040625 383.234687) scale(0.1 -0.1)">
      <defs>
       <path id="DejaVuSans-4e" d="M 628 4666 
L 1478 4666 
L 3547 763 
L 3547 4666 
L 4159 4666 
L 4159 0 
L 3309 0 
L 1241 3903 
L 1241 0 
L 628 0 
L 628 4666 
z
" transform="scale(0.015625)"/>
      </defs>
      <use xlink:href="#DejaVuSans-4e"/>
     </g>
    </g>
   </g>
   <g id="matplotlib.axis_2">
    <g id="ytick_1">
     <g id="line2d_13">
      <path d="M 43.78125 339.838125 
L 601.78125 339.838125 
" clip-path="url(#p04ce2f9cf4)" style="fill: none; stroke: #b0b0b0; stroke-width: 0.8; stroke-linecap: square"/>
     </g>
     <g id="line2d_14">
      <defs>
       <path id="m91c4a0a09b" d="M 0 0 
L -3.5 0 
" style="stroke: #000000; stroke-width: 0.8"/>
      </defs>
      <g>
       <use xlink:href="#m91c4a0a09b" x="43.78125" y="339.838125" style="stroke: #000000; stroke-width: 0.8"/>
      </g>
     </g>
     <g id="text_8">
      <!-- 0.0 -->
      <g transform="translate(20.878125 343.637344) scale(0.1 -0.1)">
       <defs>
        <path id="DejaVuSans-2e" d="M 684 794 
L 1344 794 
L 1344 0 
L 684 0 
L 684 794 
z
" transform="scale(0.015625)"/>
       </defs>
       <use xlink:href="#DejaVuSans-30"/>
       <use xlink:href="#DejaVuSans-2e" x="63.623047"/>
       <use xlink:href="#DejaVuSans-30" x="95.410156"/>
      </g>
     </g>
    </g>
    <g id="ytick_2">
     <g id="line2d_15">
      <path d="M 43.78125 279.358125 
L 601.78125 279.358125 
" clip-path="url(#p04ce2f9cf4)" style="fill: none; stroke: #b0b0b0; stroke-width: 0.8; stroke-linecap: square"/>
     </g>
     <g id="line2d_16">
      <g>
       <use xlink:href="#m91c4a0a09b" x="43.78125" y="279.358125" style="stroke: #000000; stroke-width: 0.8"/>
      </g>
     </g>
     <g id="text_9">
      <!-- 0.2 -->
      <g transform="translate(20.878125 283.157344) scale(0.1 -0.1)">
       <use xlink:href="#DejaVuSans-30"/>
       <use xlink:href="#DejaVuSans-2e" x="63.623047"/>
       <use xlink:href="#DejaVuSans-32" x="95.410156"/>
      </g>
     </g>
    </g>
    <g id="ytick_3">
     <g id="line2d_17">
      <path d="M 43.78125 218.878125 
L 601.78125 218.878125 
" clip-path="url(#p04ce2f9cf4)" style="fill: none; stroke: #b0b0b0; stroke-width: 0.8; stroke-linecap: square"/>
     </g>
     <g id="line2d_18">
      <g>
       <use xlink:href="#m91c4a0a09b" x="43.78125" y="218.878125" style="stroke: #000000; stroke-width: 0.8"/>
      </g>
     </g>
     <g id="text_10">
      <!-- 0.4 -->
      <g transform="translate(20.878125 222.677344) scale(0.1 -0.1)">
       <use xlink:href="#DejaVuSans-30"/>
       <use xlink:href="#DejaVuSans-2e" x="63.623047"/>
       <use xlink:href="#DejaVuSans-34" x="95.410156"/>
      </g>
     </g>
    </g>
    <g id="ytick_4">
     <g id="line2d_19">
      <path d="M 43.78125 158.398125 
L 601.78125 158.398125 
" clip-path="url(#p04ce2f9cf4)" style="fill: none; stroke: #b0b0b0; stroke-width: 0.8; stroke-linecap: square"/>
     </g>
     <g id="line2d_20">
      <g>
       <use xlink:href="#m91c4a0a09b" x="43.78125" y="158.398125" style="stroke: #000000; stroke-width: 0.8"/>
      </g>
     </g>
     <g id="text_11">
      <!-- 0.6 -->
      <g transform="translate(20.878125 162.197344) scale(0.1 -0.1)">
       <use xlink:href="#DejaVuSans-30"/>
       <use xlink:href="#DejaVuSans-2e" x="63.623047"/>
       <use xlink:href="#DejaVuSans-36" x="95.410156"/>
      </g>
     </g>
    </g>
    <g id="ytick_5">
     <g id="line2d_21">
      <path d="M 43.78125 97.918125 
L 601.78125 97.918125 
" clip-path="url(#p04ce2f9cf4)" style="fill: none; stroke: #b0b0b0; stroke-width: 0.8; stroke-linecap: square"/>
     </g>
     <g id="line2d_22">
      <g>
       <use xlink:href="#m91c4a0a09b" x="43.78125" y="97.918125" style="stroke: #000000; stroke-width: 0.8"/>
      </g>
     </g>
     <g id="text_12">
      <!-- 0.8 -->
      <g transform="translate(20.878125 101.717344) scale(0.1 -0.1)">
       <use xlink:href="#DejaVuSans-30"/>
       <use xlink:href="#DejaVuSans-2e" x="63.623047"/>
       <use xlink:href="#DejaVuSans-38" x="95.410156"/>
      </g>
     </g>
    </g>
    <g id="ytick_6">
     <g id="line2d_23">
      <path d="M 43.78125 37.438125 
L 601.78125 37.438125 
" clip-path="url(#p04ce2f9cf4)" style="fill: none; stroke: #b0b0b0; stroke-width: 0.8; stroke-linecap: square"/>
     </g>
     <g id="line2d_24">
      <g>
       <use xlink:href="#m91c4a0a09b" x="43.78125" y="37.438125" style="stroke: #000000; stroke-width: 0.8"/>
      </g>
     </g>
     <g id="text_13">
      <!-- 1.0 -->
      <g transform="translate(20.878125 41.237344) scale(0.1 -0.1)">
       <use xlink:href="#DejaVuSans-31"/>
       <use xlink:href="#DejaVuSans-2e" x="63.623047"/>
       <use xlink:href="#DejaVuSans-30" x="95.410156"/>
      </g>
     </g>
    </g>
    <g id="text_14">
     <!-- Probability of a survivor -->
     <g transform="translate(14.798438 247.969375) rotate(-90) scale(0.1 -0.1)">
      <defs>
       <path id="DejaVuSans-50" d="M 1259 4147 
L 1259 2394 
L 2053 2394 
Q 2494 2394 2734 2622 
Q 2975 2850 2975 3272 
Q 2975 3691 2734 3919 
Q 2494 4147 2053 4147 
L 1259 4147 
z
M 628 4666 
L 2053 4666 
Q 2838 4666 3239 4311 
Q 3641 3956 3641 3272 
Q 3641 2581 3239 2228 
Q 2838 1875 2053 1875 
L 1259 1875 
L 1259 0 
L 628 0 
L 628 4666 
z
" transform="scale(0.015625)"/>
       <path id="DejaVuSans-72" d="M 2631 2963 
Q 2534 3019 2420 3045 
Q 2306 3072 2169 3072 
Q 1681 3072 1420 2755 
Q 1159 2438 1159 1844 
L 1159 0 
L 581 0 
L 581 3500 
L 1159 3500 
L 1159 2956 
Q 1341 3275 1631 3429 
Q 1922 3584 2338 3584 
Q 2397 3584 2469 3576 
Q 2541 3569 2628 3553 
L 2631 2963 
z
" transform="scale(0.015625)"/>
       <path id="DejaVuSans-6f" d="M 1959 3097 
Q 1497 3097 1228 2736 
Q 959 2375 959 1747 
Q 959 1119 1226 758 
Q 1494 397 1959 397 
Q 2419 397 2687 759 
Q 2956 1122 2956 1747 
Q 2956 2369 2687 2733 
Q 2419 3097 1959 3097 
z
M 1959 3584 
Q 2709 3584 3137 3096 
Q 3566 2609 3566 1747 
Q 3566 888 3137 398 
Q 2709 -91 1959 -91 
Q 1206 -91 779 398 
Q 353 888 353 1747 
Q 353 2609 779 3096 
Q 1206 3584 1959 3584 
z
" transform="scale(0.015625)"/>
       <path id="DejaVuSans-62" d="M 3116 1747 
Q 3116 2381 2855 2742 
Q 2594 3103 2138 3103 
Q 1681 3103 1420 2742 
Q 1159 2381 1159 1747 
Q 1159 1113 1420 752 
Q 1681 391 2138 391 
Q 2594 391 2855 752 
Q 3116 1113 3116 1747 
z
M 1159 2969 
Q 1341 3281 1617 3432 
Q 1894 3584 2278 3584 
Q 2916 3584 3314 3078 
Q 3713 2572 3713 1747 
Q 3713 922 3314 415 
Q 2916 -91 2278 -91 
Q 1894 -91 1617 61 
Q 1341 213 1159 525 
L 1159 0 
L 581 0 
L 581 4863 
L 1159 4863 
L 1159 2969 
z
" transform="scale(0.015625)"/>
       <path id="DejaVuSans-61" d="M 2194 1759 
Q 1497 1759 1228 1600 
Q 959 1441 959 1056 
Q 959 750 1161 570 
Q 1363 391 1709 391 
Q 2188 391 2477 730 
Q 2766 1069 2766 1631 
L 2766 1759 
L 2194 1759 
z
M 3341 1997 
L 3341 0 
L 2766 0 
L 2766 531 
Q 2569 213 2275 61 
Q 1981 -91 1556 -91 
Q 1019 -91 701 211 
Q 384 513 384 1019 
Q 384 1609 779 1909 
Q 1175 2209 1959 2209 
L 2766 2209 
L 2766 2266 
Q 2766 2663 2505 2880 
Q 2244 3097 1772 3097 
Q 1472 3097 1187 3025 
Q 903 2953 641 2809 
L 641 3341 
Q 956 3463 1253 3523 
Q 1550 3584 1831 3584 
Q 2591 3584 2966 3190 
Q 3341 2797 3341 1997 
z
" transform="scale(0.015625)"/>
       <path id="DejaVuSans-69" d="M 603 3500 
L 1178 3500 
L 1178 0 
L 603 0 
L 603 3500 
z
M 603 4863 
L 1178 4863 
L 1178 4134 
L 603 4134 
L 603 4863 
z
" transform="scale(0.015625)"/>
       <path id="DejaVuSans-6c" d="M 603 4863 
L 1178 4863 
L 1178 0 
L 603 0 
L 603 4863 
z
" transform="scale(0.015625)"/>
       <path id="DejaVuSans-74" d="M 1172 4494 
L 1172 3500 
L 2356 3500 
L 2356 3053 
L 1172 3053 
L 1172 1153 
Q 1172 725 1289 603 
Q 1406 481 1766 481 
L 2356 481 
L 2356 0 
L 1766 0 
Q 1100 0 847 248 
Q 594 497 594 1153 
L 594 3053 
L 172 3053 
L 172 3500 
L 594 3500 
L 594 4494 
L 1172 4494 
z
" transform="scale(0.015625)"/>
       <path id="DejaVuSans-79" d="M 2059 -325 
Q 1816 -950 1584 -1140 
Q 1353 -1331 966 -1331 
L 506 -1331 
L 506 -850 
L 844 -850 
Q 1081 -850 1212 -737 
Q 1344 -625 1503 -206 
L 1606 56 
L 191 3500 
L 800 3500 
L 1894 763 
L 2988 3500 
L 3597 3500 
L 2059 -325 
z
" transform="scale(0.015625)"/>
       <path id="DejaVuSans-20" transform="scale(0.015625)"/>
       <path id="DejaVuSans-66" d="M 2375 4863 
L 2375 4384 
L 1825 4384 
Q 1516 4384 1395 4259 
Q 1275 4134 1275 3809 
L 1275 3500 
L 2222 3500 
L 2222 3053 
L 1275 3053 
L 1275 0 
L 697 0 
L 697 3053 
L 147 3053 
L 147 3500 
L 697 3500 
L 697 3744 
Q 697 4328 969 4595 
Q 1241 4863 1831 4863 
L 2375 4863 
z
" transform="scale(0.015625)"/>
       <path id="DejaVuSans-73" d="M 2834 3397 
L 2834 2853 
Q 2591 2978 2328 3040 
Q 2066 3103 1784 3103 
Q 1356 3103 1142 2972 
Q 928 2841 928 2578 
Q 928 2378 1081 2264 
Q 1234 2150 1697 2047 
L 1894 2003 
Q 2506 1872 2764 1633 
Q 3022 1394 3022 966 
Q 3022 478 2636 193 
Q 2250 -91 1575 -91 
Q 1294 -91 989 -36 
Q 684 19 347 128 
L 347 722 
Q 666 556 975 473 
Q 1284 391 1588 391 
Q 1994 391 2212 530 
Q 2431 669 2431 922 
Q 2431 1156 2273 1281 
Q 2116 1406 1581 1522 
L 1381 1569 
Q 847 1681 609 1914 
Q 372 2147 372 2553 
Q 372 3047 722 3315 
Q 1072 3584 1716 3584 
Q 2034 3584 2315 3537 
Q 2597 3491 2834 3397 
z
" transform="scale(0.015625)"/>
       <path id="DejaVuSans-75" d="M 544 1381 
L 544 3500 
L 1119 3500 
L 1119 1403 
Q 1119 906 1312 657 
Q 1506 409 1894 409 
Q 2359 409 2629 706 
Q 2900 1003 2900 1516 
L 2900 3500 
L 3475 3500 
L 3475 0 
L 2900 0 
L 2900 538 
Q 2691 219 2414 64 
Q 2138 -91 1772 -91 
Q 1169 -91 856 284 
Q 544 659 544 1381 
z
M 1991 3584 
L 1991 3584 
z
" transform="scale(0.015625)"/>
       <path id="DejaVuSans-76" d="M 191 3500 
L 800 3500 
L 1894 563 
L 2988 3500 
L 3597 3500 
L 2284 0 
L 1503 0 
L 191 3500 
z
" transform="scale(0.015625)"/>
      </defs>
      <use xlink:href="#DejaVuSans-50"/>
      <use xlink:href="#DejaVuSans-72" x="58.552734"/>
      <use xlink:href="#DejaVuSans-6f" x="97.416016"/>
      <use xlink:href="#DejaVuSans-62" x="158.597656"/>
      <use xlink:href="#DejaVuSans-61" x="222.074219"/>
      <use xlink:href="#DejaVuSans-62" x="283.353516"/>
      <use xlink:href="#DejaVuSans-69" x="346.830078"/>
      <use xlink:href="#DejaVuSans-6c" x="374.613281"/>
      <use xlink:href="#DejaVuSans-69" x="402.396484"/>
      <use xlink:href="#DejaVuSans-74" x="430.179688"/>
      <use xlink:href="#DejaVuSans-79" x="469.388672"/>
      <use xlink:href="#DejaVuSans-20" x="528.568359"/>
      <use xlink:href="#DejaVuSans-6f" x="560.355469"/>
      <use xlink:href="#DejaVuSans-66" x="621.537109"/>
      <use xlink:href="#DejaVuSans-20" x="656.742188"/>
      <use xlink:href="#DejaVuSans-61" x="688.529297"/>
      <use xlink:href="#DejaVuSans-20" x="749.808594"/>
      <use xlink:href="#DejaVuSans-73" x="781.595703"/>
      <use xlink:href="#DejaVuSans-75" x="833.695312"/>
      <use xlink:href="#DejaVuSans-72" x="897.074219"/>
      <use xlink:href="#DejaVuSans-76" x="938.1875"/>
      <use xlink:href="#DejaVuSans-69" x="997.367188"/>
      <use xlink:href="#DejaVuSans-76" x="1025.150391"/>
      <use xlink:href="#DejaVuSans-6f" x="1084.330078"/>
      <use xlink:href="#DejaVuSans-72" x="1145.511719"/>
     </g>
    </g>
   </g>
   <g id="line2d_25">
    <path d="M 69.144886 339.838125 
L 69.195614 37.438125 
L 69.246341 339.838125 
L 69.297068 113.038125 
L 69.347795 160.638125 
L 69.44925 213.996717 
L 69.499977 207.125591 
L 69.702886 171.416991 
L 70.057977 200.084079 
L 70.159432 197.915379 
L 70.666705 177.296337 
L 70.717432 177.372865 
L 70.869614 179.75536 
L 71.630523 196.944738 
L 71.731977 197.083392 
L 71.833432 196.682571 
L 72.036341 194.593664 
L 73.253795 179.093997 
L 73.405977 178.907788 
L 73.558159 179.162249 
L 73.811795 180.391594 
L 74.268341 184.240459 
L 75.282886 193.368162 
L 75.739432 195.573895 
L 76.094523 196.162666 
L 76.297432 196.153822 
L 76.551068 195.730956 
L 76.906159 194.630194 
L 77.565614 191.297756 
L 79.543977 181.33345 
L 80.507795 179.510937 
L 80.812159 179.451785 
L 81.116523 179.608803 
L 81.420886 179.95132 
L 81.928159 180.902591 
L 82.536886 182.531817 
L 83.247068 184.849004 
L 84.058705 187.700213 
L 84.718159 189.90715 
L 85.479068 192.139925 
L 86.18925 193.807386 
L 87.660341 195.709758 
L 88.167614 195.89225 
L 89.029977 195.648651 
L 89.334341 195.442953 
L 90.298159 194.370613 
L 90.906886 193.428506 
L 91.718523 191.966303 
L 92.073614 191.243098 
L 92.377977 190.621239 
L 92.733068 189.902098 
L 93.950523 187.369547 
L 95.015795 185.269553 
L 95.725977 184.010537 
L 97.197068 181.809954 
L 98.110159 180.816497 
L 99.682705 179.814878 
L 100.342159 179.658861 
L 100.849432 179.630568 
L 101.661068 179.751516 
L 102.827795 180.26112 
L 103.842341 180.981578 
L 105.567068 182.630105 
L 106.480159 183.655211 
L 113.226886 191.71526 
L 114.444341 192.839179 
L 115.053068 193.371904 
L 115.408159 193.612322 
L 115.966159 194.018372 
L 117.741614 195.014038 
L 120.379432 195.744517 
L 120.531614 195.727922 
L 120.734523 195.75301 
L 122.307068 195.695459 
L 123.981068 195.433527 
L 124.183977 195.264653 
L 124.792705 195.130335 
L 124.843432 195.011262 
L 124.894159 195.142344 
L 124.995614 195.003382 
L 125.046341 195.085659 
L 125.147795 194.978187 
L 125.198523 194.879754 
L 125.24925 195.016551 
L 125.350705 194.890334 
L 125.401432 194.955327 
L 125.502886 194.885142 
L 125.553614 194.763814 
L 125.604341 194.962628 
L 125.655068 194.752469 
L 125.705795 194.803872 
L 125.756523 194.660803 
L 125.80725 194.838247 
L 126.010159 194.595313 
L 127.075432 194.022996 
L 127.126159 194.137938 
L 127.176886 193.964583 
L 127.227614 194.035658 
L 127.278341 194.107104 
L 127.430523 193.706908 
L 127.582705 193.923022 
L 127.633432 193.726398 
L 127.684159 193.74413 
L 127.734886 193.829216 
L 127.785614 193.733997 
L 127.836341 193.712049 
L 127.887068 193.499559 
L 127.937795 193.537379 
L 128.089977 193.560137 
L 128.191432 193.400909 
L 128.242159 193.546052 
L 128.394341 193.125326 
L 128.445068 193.151972 
L 128.495795 193.199055 
L 128.546523 193.063966 
L 128.59725 193.269891 
L 128.647977 193.106718 
L 128.698705 192.955528 
L 128.749432 193.068904 
L 128.800159 193.063666 
L 128.952341 192.929519 
L 129.003068 192.824645 
L 129.053795 193.012597 
L 129.104523 192.822322 
L 129.15525 192.614234 
L 129.205977 192.804279 
L 129.510341 192.559835 
L 129.561068 192.3934 
L 129.611795 192.717743 
L 129.662523 192.628144 
L 129.814705 192.395869 
L 129.916159 192.423429 
L 130.017614 192.067538 
L 130.119068 192.310753 
L 130.169795 192.289247 
L 130.321977 192.097323 
L 130.524886 191.953661 
L 130.677068 191.614751 
L 130.778523 191.81869 
L 130.879977 191.645586 
L 130.930705 191.762005 
L 130.981432 191.712594 
L 131.184341 191.365421 
L 131.235068 191.532337 
L 131.38725 191.246856 
L 131.437977 191.33114 
L 131.488705 191.27763 
L 131.894523 190.933245 
L 131.94525 191.025907 
L 132.148159 190.643597 
L 132.198886 190.698491 
L 132.249614 190.641875 
L 132.351068 190.684674 
L 132.401795 190.503862 
L 132.452523 190.584039 
L 132.50325 190.559206 
L 132.553977 190.275977 
L 132.604705 190.49523 
L 132.756886 190.239349 
L 132.807614 190.06252 
L 132.858341 190.27872 
L 132.909068 190.097209 
L 132.959795 190.262614 
L 133.010523 190.160393 
L 133.06125 189.892019 
L 133.111977 189.914296 
L 133.162705 190.038127 
L 133.213432 189.809371 
L 133.365614 190.140681 
L 133.720705 189.502121 
L 134.075795 189.388546 
L 134.329432 188.982214 
L 134.532341 189.011722 
L 134.583068 188.629433 
L 134.633795 188.933833 
L 134.684523 188.948063 
L 134.836705 188.503114 
L 134.938159 188.750355 
L 135.090341 188.363552 
L 135.141068 188.636152 
L 135.191795 188.347212 
L 135.496159 188.103906 
L 135.546886 188.267052 
L 135.648341 187.958403 
L 135.699068 188.151133 
L 135.749795 187.953417 
L 136.054159 187.742672 
L 136.104886 187.836791 
L 136.155614 187.719368 
L 136.307795 187.617727 
L 136.358523 187.865482 
L 136.510705 187.510427 
L 136.561432 187.473872 
L 136.713614 187.18707 
L 136.916523 187.307206 
L 136.96725 187.100884 
L 137.068705 187.142176 
L 137.119432 187.232399 
L 137.271614 186.84999 
L 137.322341 186.908786 
L 137.423795 186.667797 
L 137.474523 186.719869 
L 137.52525 186.791474 
L 137.575977 186.739405 
L 137.677432 186.633559 
L 137.778886 186.487376 
L 137.829614 186.571993 
L 137.880341 186.367785 
L 137.931068 186.534312 
L 138.235432 186.068918 
L 138.286159 186.300458 
L 138.336886 186.046969 
L 138.387614 186.157584 
L 138.438341 186.094818 
L 138.539795 186.111514 
L 138.691977 185.846939 
L 138.742705 186.084692 
L 138.844159 185.617421 
L 138.894886 185.684937 
L 139.047068 185.513275 
L 139.097795 185.707205 
L 139.19925 185.363788 
L 139.300705 185.498656 
L 139.402159 185.263684 
L 139.452886 185.329859 
L 139.605068 185.361109 
L 139.75725 184.952086 
L 139.858705 185.096387 
L 139.909432 185.045816 
L 139.960159 184.837682 
L 140.010886 184.994379 
L 140.061614 185.020206 
L 140.213795 184.756398 
L 140.264523 184.806881 
L 140.31525 184.880774 
L 140.518159 184.500615 
L 140.568886 184.742496 
L 140.619614 184.643386 
L 140.670341 184.58788 
L 140.721068 184.350863 
L 140.771795 184.372869 
L 140.822523 184.481525 
L 140.87325 184.358588 
L 140.923977 184.418128 
L 141.076159 184.080932 
L 141.126886 184.359771 
L 141.177614 184.045134 
L 141.228341 184.190501 
L 141.279068 184.085882 
L 141.380523 184.108751 
L 141.532705 183.945785 
L 141.583432 184.010361 
L 141.735614 183.702528 
L 141.786341 183.991419 
L 141.887795 183.960566 
L 142.039977 183.721373 
L 142.192159 183.398501 
L 142.242886 183.713579 
L 142.293614 183.541831 
L 142.445795 183.544299 
L 142.648705 183.196962 
L 142.699432 183.277891 
L 142.750159 183.161373 
L 142.800886 183.058964 
L 142.851614 183.27792 
L 142.902341 183.038715 
L 142.953068 183.00846 
L 143.10525 183.109657 
L 143.155977 182.896149 
L 143.206705 183.022327 
L 143.409614 182.907524 
L 143.460341 182.735291 
L 143.561795 182.782754 
L 144.322705 182.444076 
L 144.424159 182.471651 
L 144.627068 182.277944 
L 144.931432 182.086616 
L 144.982159 182.190759 
L 145.032886 182.07651 
L 145.083614 182.042362 
L 145.134341 181.854706 
L 145.185068 182.081325 
L 145.235795 182.087758 
L 145.286523 181.921773 
L 145.33725 182.012963 
L 146.250341 181.518368 
L 146.301068 181.592977 
L 146.503977 181.371983 
L 146.554705 181.485002 
L 146.605432 181.440241 
L 146.757614 181.175116 
L 146.909795 181.3897 
L 147.112705 181.054344 
L 147.163432 181.093438 
L 147.417068 181.131984 
L 147.518523 180.975979 
L 147.56925 181.081904 
L 147.619977 180.818597 
L 147.670705 180.924965 
L 147.772159 181.058684 
L 147.873614 180.863397 
L 147.924341 180.931017 
L 148.025795 180.798422 
L 148.076523 180.823516 
L 148.12725 180.795666 
L 148.177977 180.897851 
L 148.228705 180.688825 
L 148.279432 180.790822 
L 148.431614 180.763101 
L 148.583795 180.675829 
L 148.786705 180.646039 
L 148.989614 180.557677 
L 149.091068 180.487801 
L 149.24325 180.460818 
L 149.293977 180.510957 
L 149.344705 180.42202 
L 149.699795 180.352384 
L 149.750523 180.289242 
L 149.80125 180.379747 
L 150.409977 180.224021 
L 150.511432 180.241332 
L 150.663614 180.112277 
L 150.815795 180.135331 
L 151.018705 180.069807 
L 151.170886 180.05874 
L 151.323068 179.978786 
L 151.373795 180.052916 
L 151.424523 179.995346 
L 151.627432 179.973631 
L 151.728886 179.949866 
L 151.982523 179.887674 
L 152.134705 179.88259 
L 152.337614 179.865183 
L 152.794159 179.819146 
L 152.895614 179.814233 
L 153.047795 179.804274 
L 153.808705 179.731667 
L 153.960886 179.737987 
L 154.873977 179.688626 
L 155.178341 179.694307 
L 156.294341 179.728282 
L 156.49725 179.732611 
L 159.033614 179.963577 
L 159.084341 180.10581 
L 159.135068 179.96647 
L 159.439432 180.147509 
L 159.693068 180.107694 
L 159.84525 180.153155 
L 160.96125 180.38033 
L 161.062705 180.473347 
L 161.113432 180.333178 
L 161.164159 180.452077 
L 161.823614 180.546504 
L 162.07725 180.646896 
L 162.229432 180.663595 
L 162.381614 180.698264 
L 162.483068 180.733971 
L 162.533795 180.693595 
L 162.584523 180.913901 
L 162.63525 180.757722 
L 163.345432 181.030342 
L 163.649795 181.138153 
L 163.700523 180.984788 
L 163.75125 181.18838 
L 163.801977 181.124878 
L 164.055614 181.155506 
L 164.157068 181.295861 
L 164.258523 181.193855 
L 164.410705 181.420342 
L 164.461432 181.262793 
L 164.512159 181.346131 
L 164.816523 181.533082 
L 164.86725 181.424059 
L 164.917977 181.491849 
L 165.070159 181.510438 
L 165.120886 181.623349 
L 165.171614 181.519559 
L 165.222341 181.445012 
L 165.374523 181.667124 
L 165.42525 181.538739 
L 165.577432 181.756121 
L 165.628159 181.604172 
L 165.678886 181.770136 
L 165.831068 181.753515 
L 165.881795 181.607953 
L 166.033977 181.99655 
L 166.135432 181.785165 
L 166.287614 182.011855 
L 166.439795 181.962225 
L 166.54125 182.012131 
L 166.794886 182.111507 
L 166.896341 182.044068 
L 167.09925 182.280047 
L 167.149977 182.209366 
L 167.200705 182.357821 
L 167.251432 182.312582 
L 167.555795 182.357586 
L 167.809432 182.641397 
L 167.910886 182.526049 
L 168.012341 182.620577 
L 168.063068 182.548826 
L 168.113795 182.735513 
L 168.164523 182.668278 
L 168.21525 182.651368 
L 168.265977 182.777948 
L 168.316705 182.684875 
L 168.418159 182.673223 
L 168.570341 182.835205 
L 168.722523 182.933998 
L 168.77325 182.795124 
L 168.823977 182.93682 
L 169.077614 182.823139 
L 169.179068 183.099348 
L 169.229795 182.918031 
L 169.280523 183.045202 
L 169.381977 183.106627 
L 169.483432 183.252587 
L 169.534159 183.355929 
L 169.584886 183.183347 
L 169.635614 183.222328 
L 169.88925 183.386534 
L 169.939977 183.571592 
L 169.990705 183.401719 
L 170.244341 183.495615 
L 170.345795 183.463999 
L 170.650159 183.769666 
L 170.700886 183.508941 
L 170.751614 183.729366 
L 170.903795 183.792504 
L 171.055977 183.836388 
L 171.106705 183.655747 
L 171.208159 183.92647 
L 171.258886 183.828058 
L 171.411068 183.980797 
L 171.512523 184.289992 
L 171.56325 184.078131 
L 171.613977 183.979251 
L 171.664705 184.189297 
L 171.766159 184.155501 
L 171.918341 184.263624 
L 171.969068 184.13562 
L 172.019795 184.236568 
L 172.222705 184.476507 
L 172.577795 184.45984 
L 172.729977 184.715773 
L 172.831432 184.589389 
L 172.932886 184.730754 
L 172.983614 184.699176 
L 173.034341 184.557887 
L 173.085068 184.678582 
L 173.135795 184.878744 
L 173.186523 184.776845 
L 173.287977 184.849742 
L 173.440159 184.95773 
L 173.541614 184.921667 
L 173.845977 185.223533 
L 173.947432 185.08145 
L 174.048886 185.321079 
L 174.099614 185.30473 
L 174.35325 185.261418 
L 174.403977 185.242858 
L 174.505432 185.470734 
L 174.556159 185.33491 
L 174.606886 185.463079 
L 174.657614 185.406648 
L 174.708341 185.561777 
L 174.759068 185.339332 
L 174.809795 185.588303 
L 174.860523 185.562691 
L 174.91125 185.364409 
L 174.961977 185.511557 
L 175.266341 185.841175 
L 175.317068 185.613677 
L 175.367795 185.775942 
L 175.519977 185.892397 
L 175.570705 185.82664 
L 175.621432 185.7848 
L 175.773614 186.10113 
L 175.925795 186.004688 
L 175.976523 186.184568 
L 176.02725 186.020834 
L 176.077977 185.9767 
L 176.179432 186.322451 
L 176.331614 186.046157 
L 176.433068 186.311477 
L 176.483795 186.296022 
L 176.58525 186.313705 
L 176.686705 186.499746 
L 176.737432 186.463701 
L 176.889614 186.33051 
L 176.940341 186.589739 
L 176.991068 186.460928 
L 177.041795 186.497479 
L 177.193977 186.732703 
L 177.295432 186.678475 
L 177.346159 186.939442 
L 177.396886 186.677437 
L 177.599795 186.924426 
L 177.70125 186.760407 
L 177.751977 187.047802 
L 177.802705 187.014379 
L 177.904159 186.691884 
L 178.056341 187.18339 
L 178.157795 186.803607 
L 178.309977 187.287209 
L 178.360705 187.049622 
L 178.411432 187.203741 
L 178.512886 187.119719 
L 178.563614 187.375368 
L 178.614341 187.061164 
L 178.766523 187.280919 
L 178.918705 187.332833 
L 178.969432 187.541907 
L 179.070886 187.515791 
L 179.172341 187.547804 
L 179.273795 187.708603 
L 179.324523 187.591316 
L 179.476705 187.778577 
L 179.527432 187.839605 
L 179.578159 187.671226 
L 179.628886 187.799211 
L 179.679614 187.976437 
L 179.730341 187.855535 
L 179.781068 187.852636 
L 179.831795 187.644468 
L 179.882523 187.855089 
L 179.983977 188.052496 
L 180.034705 187.880472 
L 180.085432 188.012906 
L 180.136159 188.006053 
L 180.186886 188.143104 
L 180.237614 187.975149 
L 180.288341 188.096576 
L 180.339068 188.023006 
L 180.440523 188.044988 
L 180.643432 188.258582 
L 180.694159 188.249045 
L 180.744886 188.076058 
L 180.795614 188.268494 
L 180.947795 188.4592 
L 181.04925 188.231061 
L 181.201432 188.573636 
L 181.252159 188.489174 
L 181.404341 188.622569 
L 181.556523 188.469851 
L 181.657977 188.65469 
L 181.810159 188.827712 
L 181.962341 188.662111 
L 182.013068 188.926349 
L 182.063795 188.87455 
L 182.114523 188.736512 
L 182.16525 188.985733 
L 182.215977 188.967501 
L 182.266705 188.914692 
L 182.317432 189.020816 
L 182.520341 189.095587 
L 182.571068 188.848837 
L 182.621795 189.074691 
L 182.672523 189.248109 
L 182.72325 188.911124 
L 182.773977 189.053461 
L 182.926159 189.328179 
L 182.976886 189.189133 
L 183.027614 189.395065 
L 183.078341 189.314159 
L 183.129068 189.243934 
L 183.179795 189.373221 
L 183.230523 189.300996 
L 183.382705 189.317521 
L 183.484159 189.601089 
L 183.534886 189.372586 
L 183.585614 189.655735 
L 183.636341 189.558303 
L 183.687068 189.655127 
L 183.83925 189.60175 
L 183.991432 189.771674 
L 184.042159 189.829669 
L 184.092886 189.654626 
L 184.143614 189.893534 
L 184.245068 189.840835 
L 184.549432 189.937458 
L 184.600159 189.750265 
L 184.650886 189.982857 
L 184.752341 189.940501 
L 184.803068 190.132077 
L 184.853795 190.025198 
L 184.95525 190.049798 
L 185.005977 189.982079 
L 185.056705 190.063606 
L 185.107432 190.113459 
L 185.259614 190.328037 
L 185.310341 190.354689 
L 185.361068 190.241368 
L 185.411795 190.297752 
L 185.462523 190.430168 
L 185.51325 190.328798 
L 185.563977 190.294337 
L 185.766886 190.578769 
L 185.817614 190.37532 
L 185.868341 190.443445 
L 186.172705 190.465365 
L 186.324886 190.671769 
L 186.477068 190.501709 
L 186.62925 190.923371 
L 186.679977 190.690456 
L 186.730705 190.749575 
L 186.832159 190.849225 
L 186.882886 190.660243 
L 187.035068 191.013314 
L 187.18725 190.866884 
L 187.288705 191.11416 
L 187.339432 190.962958 
L 187.390159 191.025411 
L 187.643795 191.256378 
L 187.694523 191.098703 
L 187.74525 191.159762 
L 187.795977 191.286 
L 187.846705 191.134923 
L 187.897432 191.098769 
L 188.151068 191.410372 
L 188.252523 191.473053 
L 188.30325 191.383986 
L 188.353977 191.652051 
L 188.404705 191.55728 
L 188.607614 191.594366 
L 188.709068 191.919704 
L 188.86125 191.501189 
L 189.216341 191.758444 
L 189.267068 191.635729 
L 189.41925 191.899466 
L 189.469977 191.686677 
L 189.520705 191.79375 
L 189.571432 191.767241 
L 189.622159 191.931568 
L 189.672886 191.838872 
L 190.027977 192.01602 
L 190.078705 191.996547 
L 190.230886 192.247907 
L 190.332341 192.104525 
L 190.484523 192.177775 
L 190.687432 192.187822 
L 190.839614 192.42848 
L 190.890341 192.356636 
L 191.09325 192.425234 
L 191.194705 192.593872 
L 191.245432 192.539229 
L 191.397614 192.480829 
L 191.701977 192.730995 
L 191.752705 192.623902 
L 191.803432 192.517063 
L 191.854159 192.596414 
L 191.904886 192.593958 
L 192.057068 192.733233 
L 192.107795 192.783593 
L 192.158523 192.710106 
L 192.20925 192.629194 
L 192.259977 192.723638 
L 192.310705 192.929649 
L 192.361432 192.695236 
L 192.462886 192.884301 
L 192.513614 192.814257 
L 192.564341 192.890941 
L 192.716523 192.981435 
L 192.76725 192.902635 
L 192.817977 193.0026 
L 193.578886 193.15831 
L 193.629614 193.112363 
L 193.731068 193.285988 
L 193.832523 193.218835 
L 193.984705 193.337498 
L 194.086159 193.2569 
L 194.136886 193.440408 
L 194.187614 193.416284 
L 194.238341 193.28338 
L 194.289068 193.318992 
L 194.491977 193.535046 
L 194.745614 193.381972 
L 194.897795 193.651033 
L 195.049977 193.654354 
L 195.100705 193.756774 
L 195.151432 193.630684 
L 195.658705 193.794081 
L 195.709432 193.667699 
L 195.760159 193.744488 
L 195.963068 193.910377 
L 196.013795 193.980335 
L 196.064523 193.941724 
L 196.216705 193.902851 
L 197.738523 194.262545 
L 197.890705 194.277994 
L 197.992159 194.321272 
L 198.042886 194.235851 
L 198.093614 194.378728 
L 198.144341 194.348359 
L 198.195068 194.282258 
L 198.245795 194.38807 
L 198.702341 194.480304 
L 198.753068 194.383103 
L 198.90525 194.553144 
L 199.108159 194.749551 
L 199.158886 194.609956 
L 199.209614 194.568781 
L 199.260341 194.657846 
L 199.412523 194.685154 
L 199.46325 194.605706 
L 199.513977 194.706195 
L 200.325614 194.766573 
L 200.427068 194.825328 
L 200.477795 194.765257 
L 200.629977 194.856055 
L 200.782159 194.902505 
L 200.985068 194.843371 
L 201.187977 194.950103 
L 201.69525 194.971766 
L 201.847432 195.049498 
L 202.405432 195.173792 
L 202.608341 195.202629 
L 202.659068 195.119497 
L 202.709795 195.189293 
L 203.572159 195.294075 
L 203.775068 195.319703 
L 203.977977 195.361488 
L 204.130159 195.348058 
L 204.231614 195.343974 
L 204.434523 195.396423 
L 204.637432 195.41895 
L 205.04325 195.461665 
L 205.296886 195.454285 
L 205.449068 195.508263 
L 205.60125 195.499333 
L 205.804159 195.548518 
L 205.956341 195.509326 
L 206.108523 195.534327 
L 206.362159 195.590097 
L 206.514341 195.584685 
L 207.630341 195.658044 
L 207.782523 195.652192 
L 209.557977 195.728532 
L 210.268159 195.740367 
L 211.029068 195.735351 
L 215.898886 195.587797 
L 216.051068 195.554767 
L 218.485977 195.323382 
L 218.688886 195.262898 
L 218.841068 195.29451 
L 219.399068 195.210852 
L 219.449795 195.261575 
L 219.500523 195.16754 
L 219.754159 195.178429 
L 220.007795 195.130423 
L 220.717977 195.075365 
L 220.768705 195.014082 
L 220.819432 195.132475 
L 220.870159 195.031895 
L 222.34125 194.817074 
L 222.391977 194.894388 
L 222.442705 194.840998 
L 222.696341 194.773197 
L 222.848523 194.724991 
L 223.507977 194.658267 
L 223.558705 194.561778 
L 223.609432 194.617143 
L 223.710886 194.631343 
L 223.863068 194.564837 
L 224.370341 194.503468 
L 224.421068 194.563515 
L 224.57325 194.415137 
L 225.334159 194.343059 
L 225.486341 194.278456 
L 225.68925 194.246227 
L 225.942886 194.137447 
L 226.348705 194.172469 
L 226.399432 194.039433 
L 226.450159 194.132453 
L 226.653068 193.968967 
L 226.703795 194.108291 
L 226.754523 193.982052 
L 227.058886 194.098382 
L 227.160341 193.890016 
L 227.211068 193.943642 
L 227.413977 193.827407 
L 227.566159 193.894172 
L 227.718341 193.811849 
L 228.682159 193.626762 
L 228.732886 193.660587 
L 228.783614 193.568934 
L 228.986523 193.592355 
L 229.087977 193.487559 
L 229.240159 193.563183 
L 229.950341 193.357652 
L 230.051795 193.415255 
L 230.15325 193.211271 
L 230.254705 193.331677 
L 230.305432 193.15617 
L 230.356159 193.277479 
L 230.457614 193.136891 
L 230.508341 193.253545 
L 230.761977 193.091582 
L 230.812705 193.258641 
L 230.863432 193.108855 
L 230.914159 193.187696 
L 230.964886 193.120919 
L 231.319977 193.018047 
L 231.522886 193.070206 
L 231.573614 192.897362 
L 231.624341 192.940719 
L 231.675068 193.026336 
L 231.725795 192.994509 
L 231.776523 192.930329 
L 231.82725 193.047339 
L 231.877977 192.886859 
L 232.131614 192.860846 
L 232.283795 192.864941 
L 232.435977 192.749966 
L 232.537432 192.729953 
L 232.588159 192.664613 
L 232.638886 192.729867 
L 232.689614 192.79776 
L 232.841795 192.636921 
L 232.892523 192.67766 
L 232.94325 192.539224 
L 232.993977 192.667348 
L 233.044705 192.676819 
L 233.196886 192.517986 
L 233.247614 192.633588 
L 233.298341 192.574486 
L 233.602705 192.506267 
L 233.704159 192.552354 
L 233.754886 192.399365 
L 233.805614 192.528434 
L 234.008523 192.31468 
L 234.109977 192.446124 
L 234.160705 192.403377 
L 234.262159 192.358816 
L 234.515795 192.244103 
L 234.667977 192.354483 
L 234.870886 192.139016 
L 235.073795 192.265143 
L 235.17525 192.057664 
L 235.225977 192.14282 
L 235.276705 192.020882 
L 235.378159 192.11516 
L 235.530341 191.962375 
L 235.581068 192.018571 
L 235.73325 191.909555 
L 235.783977 192.112488 
L 235.834705 191.982224 
L 235.986886 191.913443 
L 236.139068 191.920713 
L 236.189795 191.77163 
L 236.240523 191.861103 
L 236.341977 191.880393 
L 236.544886 191.747179 
L 236.595614 191.858201 
L 236.646341 191.711011 
L 237.001432 191.492892 
L 237.153614 191.680734 
L 237.204341 191.52728 
L 237.255068 191.57431 
L 237.356523 191.52995 
L 237.508705 191.531624 
L 237.559432 191.533545 
L 237.711614 191.464636 
L 237.863795 191.451018 
L 238.066705 191.430493 
L 238.168159 191.250753 
L 238.218886 191.30576 
L 238.320341 191.250045 
L 238.371068 191.354844 
L 238.421795 191.225026 
L 238.472523 191.302582 
L 238.52325 191.173576 
L 238.573977 191.306869 
L 238.726159 191.249361 
L 238.776886 191.016754 
L 238.827614 191.200916 
L 239.08125 190.944598 
L 239.131977 191.145238 
L 239.182705 191.096653 
L 239.233432 190.989258 
L 239.284159 191.142733 
L 239.334886 191.048102 
L 239.487068 190.988677 
L 239.588523 190.84493 
L 239.63925 190.931057 
L 239.842159 190.986204 
L 239.892886 190.823749 
L 239.943614 190.928614 
L 239.994341 190.977787 
L 240.095795 190.764652 
L 240.146523 190.823664 
L 240.19725 190.879661 
L 240.349432 190.715951 
L 240.400159 190.830365 
L 240.450886 190.78222 
L 240.552341 190.683257 
L 240.603068 190.757389 
L 240.653795 190.702961 
L 240.704523 190.641259 
L 240.75525 190.706938 
L 240.856705 190.707744 
L 240.958159 190.527829 
L 241.008886 190.635154 
L 241.059614 190.6058 
L 241.110341 190.425875 
L 241.211795 190.46793 
L 241.262523 190.607722 
L 241.31325 190.51132 
L 241.719068 190.300751 
L 241.769795 190.258835 
L 241.820523 190.354001 
L 241.972705 190.334698 
L 242.023432 190.52456 
L 242.074159 190.334158 
L 242.124886 190.400675 
L 242.175614 190.286599 
L 242.226341 190.314543 
L 242.378523 190.126653 
L 242.479977 190.341685 
L 242.530705 190.076307 
L 242.632159 190.131488 
L 242.784341 190.115036 
L 242.885795 190.015942 
L 242.936523 190.156262 
L 242.98725 190.011798 
L 243.037977 189.982818 
L 243.088705 190.134178 
L 243.139432 190.056636 
L 243.342341 189.854021 
L 243.393068 190.023065 
L 243.494523 189.776759 
L 243.54525 189.972562 
L 243.595977 189.911536 
L 243.748159 189.723095 
L 243.849614 189.856169 
L 243.900341 189.754569 
L 244.204705 189.726734 
L 244.255432 189.830575 
L 244.407614 189.681338 
L 244.762705 189.48395 
L 244.813432 189.342228 
L 244.864159 189.608726 
L 244.914886 189.509527 
L 245.067068 189.485631 
L 245.21925 189.384222 
L 245.422159 189.457906 
L 245.523614 189.276609 
L 245.625068 189.397236 
L 245.77725 189.219318 
L 245.929432 189.171507 
L 245.980159 189.121222 
L 246.030886 189.31179 
L 246.081614 189.113011 
L 246.233795 189.180512 
L 246.284523 189.007392 
L 246.33525 189.028809 
L 246.385977 189.141838 
L 246.436705 189.046153 
L 246.487432 188.941102 
L 246.538159 189.13632 
L 246.588886 189.031346 
L 246.639614 188.836462 
L 246.690341 188.912165 
L 246.89325 188.889133 
L 246.994705 189.017986 
L 247.146886 188.777321 
L 247.197614 188.756685 
L 247.248341 188.905201 
L 247.299068 188.745685 
L 247.45125 188.833043 
L 247.603432 188.730199 
L 247.654159 188.80896 
L 247.704886 188.743586 
L 248.00925 188.627226 
L 248.110705 188.701164 
L 248.212159 188.435075 
L 248.262886 188.491195 
L 248.415068 188.627164 
L 248.56725 188.470489 
L 248.973068 188.437343 
L 249.074523 188.228743 
L 249.226705 188.425601 
L 249.378886 188.085397 
L 249.581795 188.318162 
L 249.784705 188.08764 
L 249.936886 188.091282 
L 250.139795 187.957199 
L 250.291977 188.078085 
L 250.444159 188.025924 
L 250.596341 187.88105 
L 250.697795 187.745907 
L 250.79925 187.933728 
L 250.951432 187.774624 
L 251.103614 187.8803 
L 251.306523 187.642884 
L 251.35725 187.867994 
L 251.407977 187.715025 
L 251.560159 187.621774 
L 251.712341 187.648115 
L 251.864523 187.53621 
L 251.91525 187.551076 
L 251.965977 187.687965 
L 252.016705 187.504012 
L 252.067432 187.58432 
L 252.118159 187.593625 
L 252.270341 187.393709 
L 252.321068 187.596641 
L 252.371795 187.479793 
L 252.422523 187.306861 
L 252.47325 187.408089 
L 252.523977 187.444965 
L 252.625432 187.279881 
L 252.726886 187.452857 
L 252.828341 187.178403 
L 252.980523 187.305632 
L 253.132705 187.313398 
L 253.335614 187.056738 
L 253.386341 187.116272 
L 253.437068 187.258789 
L 253.487795 187.142976 
L 253.538523 186.962343 
L 253.58925 187.14858 
L 253.893614 186.917855 
L 253.944341 186.98798 
L 254.14725 187.050334 
L 254.350159 186.765331 
L 254.400886 186.906145 
L 254.451614 186.874747 
L 254.755977 186.644185 
L 254.806705 186.793697 
L 254.908159 186.803194 
L 254.958886 186.57253 
L 255.009614 186.769019 
L 255.26325 186.616325 
L 255.313977 186.736414 
L 255.364705 186.691483 
L 255.516886 186.61963 
L 255.567614 186.679591 
L 255.618341 186.635088 
L 255.669068 186.460234 
L 255.719795 186.633755 
L 255.922705 186.507162 
L 256.328523 186.313004 
L 256.480705 186.272835 
L 256.785068 186.396968 
L 256.987977 186.081683 
L 257.038705 186.28499 
L 257.140159 186.23839 
L 257.343068 186.108249 
L 257.393795 186.155961 
L 257.49525 185.982054 
L 257.545977 186.117624 
L 257.596705 186.097624 
L 257.748886 185.991077 
L 257.799614 186.038163 
L 257.901068 185.886361 
L 257.951795 186.016826 
L 258.002523 185.896028 
L 258.154705 185.881342 
L 258.306886 185.968086 
L 258.357614 185.72832 
L 258.408341 185.857507 
L 258.61125 185.714846 
L 258.763432 185.835429 
L 258.814159 185.765364 
L 258.864886 185.651481 
L 258.915614 185.788301 
L 259.270705 185.603445 
L 259.321432 185.656385 
L 259.372159 185.559085 
L 259.422886 185.582496 
L 259.473614 185.45412 
L 259.524341 185.585465 
L 259.625795 185.539765 
L 259.777977 185.569311 
L 259.828705 185.565851 
L 259.980886 185.363473 
L 260.488159 185.309742 
L 260.538886 185.215985 
L 260.589614 185.276342 
L 260.741795 185.244123 
L 260.792523 185.161453 
L 260.944705 185.263919 
L 260.995432 185.3481 
L 261.198341 185.070595 
L 261.299795 184.982696 
L 261.350523 185.076259 
L 261.40125 185.138093 
L 261.451977 184.979639 
L 261.553432 185.025434 
L 261.654886 185.125781 
L 261.756341 184.941887 
L 261.807068 185.018261 
L 262.162159 184.867138 
L 262.212886 184.96123 
L 262.263614 184.844391 
L 262.314341 184.913283 
L 262.365068 184.851253 
L 262.466523 184.767447 
L 262.51725 184.799853 
L 262.567977 184.857892 
L 262.618705 184.809542 
L 262.770886 184.664866 
L 262.872341 184.656992 
L 262.923068 184.566315 
L 262.973795 184.670198 
L 263.328886 184.629968 
L 263.430341 184.56679 
L 263.63325 184.645794 
L 263.785432 184.490285 
L 263.836159 184.569915 
L 263.886886 184.536555 
L 263.937614 184.441598 
L 263.988341 184.532797 
L 264.140523 184.468623 
L 264.19125 184.565055 
L 264.343432 184.283512 
L 264.444886 184.334438 
L 264.597068 184.392679 
L 264.74925 184.288075 
L 264.850705 184.258764 
L 265.002886 184.1722 
L 265.104341 184.249897 
L 265.30725 184.172747 
L 265.357977 184.245301 
L 265.510159 183.95664 
L 265.611614 184.177255 
L 265.662341 184.09368 
L 265.966705 184.111977 
L 266.017432 183.848739 
L 266.068159 184.048064 
L 266.372523 183.817969 
L 266.524705 183.928411 
L 266.575432 183.749334 
L 266.626159 183.774236 
L 266.778341 183.805784 
L 266.829068 183.736193 
L 266.879795 183.841598 
L 266.930523 183.876276 
L 267.082705 183.711786 
L 267.184159 183.74168 
L 267.285614 183.639079 
L 267.336341 183.681994 
L 267.437795 183.727886 
L 267.488523 183.50973 
L 267.53925 183.649094 
L 267.589977 183.794138 
L 267.640705 183.603701 
L 267.691432 183.633122 
L 267.843614 183.549125 
L 267.894341 183.591633 
L 268.046523 183.382959 
L 268.09725 183.601029 
L 268.147977 183.563211 
L 268.604523 183.395609 
L 268.756705 183.452924 
L 268.908886 183.299665 
L 268.959614 183.271825 
L 269.010341 183.386381 
L 269.061068 183.32241 
L 269.111795 183.214518 
L 269.162523 183.281259 
L 269.21325 183.345821 
L 269.263977 183.291916 
L 269.416159 183.256849 
L 269.466886 183.315371 
L 269.619068 183.175553 
L 269.821977 183.138617 
L 270.024886 183.24376 
L 270.177068 183.069727 
L 270.379977 183.053225 
L 270.430705 182.937809 
L 270.481432 183.011018 
L 270.532159 183.084803 
L 270.582886 182.959502 
L 270.633614 182.993679 
L 270.684341 183.011922 
L 270.735068 182.887082 
L 270.785795 183.006235 
L 271.44525 182.816316 
L 271.495977 182.906595 
L 271.546705 182.732922 
L 271.597432 182.801601 
L 271.648159 182.817789 
L 271.698886 182.710453 
L 271.749614 182.736471 
L 271.952523 182.713563 
L 272.459795 182.668396 
L 272.611977 182.553088 
L 272.967068 182.466595 
L 273.017795 182.631614 
L 273.068523 182.500273 
L 273.11925 182.553298 
L 273.169977 182.46613 
L 273.220705 182.406535 
L 273.271432 182.466108 
L 273.322159 182.54452 
L 273.372886 182.476251 
L 273.423614 182.360069 
L 273.575795 182.518973 
L 273.727977 182.380599 
L 273.778705 182.389749 
L 273.829432 182.232427 
L 273.880159 182.300268 
L 273.981614 182.416276 
L 274.184523 182.264419 
L 274.336705 182.350074 
L 274.488886 182.2167 
L 274.590341 182.396859 
L 274.691795 182.200706 
L 274.742523 182.253713 
L 274.894705 182.117422 
L 274.996159 182.285995 
L 275.097614 182.135966 
L 275.148341 182.16675 
L 275.199068 182.157088 
L 275.249795 182.029231 
L 275.300523 182.097754 
L 275.401977 182.178281 
L 275.452705 182.0747 
L 275.554159 182.009926 
L 275.604886 182.083185 
L 275.757068 182.071592 
L 275.90925 181.995142 
L 276.213614 181.944452 
L 276.46725 181.981159 
L 276.619432 181.862917 
L 276.822341 181.908299 
L 277.431068 181.787326 
L 278.648523 181.57579 
L 278.749977 181.599105 
L 278.902159 181.530982 
L 279.054341 181.519284 
L 279.206523 181.548429 
L 279.307977 181.432612 
L 279.358705 181.51402 
L 279.409432 181.475334 
L 279.561614 181.356567 
L 279.612341 181.487445 
L 279.663068 181.428493 
L 279.81525 181.311978 
L 280.018159 181.329555 
L 280.576159 181.357491 
L 280.677614 181.212049 
L 280.728341 181.275416 
L 281.083432 181.246681 
L 281.235614 181.114938 
L 281.387795 181.186732 
L 281.539977 181.108545 
L 281.641432 181.136095 
L 281.692159 181.032528 
L 281.742886 181.119055 
L 282.097977 181.176273 
L 282.199432 180.938371 
L 282.300886 181.041513 
L 282.453068 181.042973 
L 282.60525 180.996365 
L 282.655977 180.930644 
L 282.706705 181.005036 
L 285.801068 180.637046 
L 285.95325 180.664688 
L 286.105432 180.600081 
L 286.257614 180.585017 
L 286.612705 180.520413 
L 286.714159 180.576819 
L 286.815614 180.489686 
L 287.018523 180.561823 
L 287.221432 180.440882 
L 287.373614 180.505293 
L 287.728705 180.411386 
L 287.880886 180.456361 
L 287.982341 180.39941 
L 288.083795 180.431318 
L 288.286705 180.354737 
L 288.74325 180.349011 
L 288.895432 180.312315 
L 288.996886 180.335616 
L 289.149068 180.271525 
L 289.402705 180.296404 
L 290.467977 180.187633 
L 290.721614 180.174282 
L 291.025977 180.145491 
L 291.634705 180.11212 
L 291.939068 180.091065 
L 293.257977 180.013779 
L 293.511614 179.986811 
L 294.779795 179.924004 
L 294.982705 179.880014 
L 295.489977 179.895159 
L 296.047977 179.846796 
L 296.250886 179.833968 
L 305.838341 179.749841 
L 306.142705 179.743632 
L 307.258705 179.780576 
L 307.613795 179.776829 
L 308.526886 179.818185 
L 308.932705 179.819257 
L 310.200886 179.858227 
L 310.454523 179.866409 
L 311.266159 179.912211 
L 311.824159 179.94931 
L 311.976341 179.940136 
L 312.17925 179.980645 
L 312.382159 179.951637 
L 312.635795 179.999922 
L 312.889432 179.958392 
L 313.29525 179.999881 
L 315.273614 180.151246 
L 315.425795 180.14216 
L 315.780886 180.164606 
L 319.078159 180.466904 
L 319.179614 180.410309 
L 319.382523 180.485027 
L 319.43325 180.410318 
L 319.483977 180.470247 
L 319.686886 180.535077 
L 319.788341 180.442482 
L 319.839068 180.509991 
L 319.940523 180.471083 
L 320.143432 180.525681 
L 320.295614 180.486709 
L 322.172523 180.71644 
L 322.324705 180.714708 
L 323.034886 180.770028 
L 323.237795 180.775563 
L 323.491432 180.831727 
L 323.745068 180.817979 
L 323.89725 180.83262 
L 324.201614 180.91037 
L 324.45525 180.917183 
L 324.505977 180.997373 
L 324.556705 180.954262 
L 324.708886 180.885077 
L 324.861068 180.951188 
L 325.063977 181.000536 
L 325.216159 180.989379 
L 325.469795 181.062633 
L 325.774159 181.035824 
L 325.977068 181.121132 
L 326.12925 181.04796 
L 326.179977 181.190114 
L 326.230705 181.084224 
L 326.484341 181.128575 
L 326.636523 181.155014 
L 326.788705 181.120962 
L 327.042341 181.257432 
L 327.346705 181.185351 
L 327.600341 181.249486 
L 329.071432 181.423405 
L 329.223614 181.404569 
L 329.629432 181.484132 
L 329.832341 181.534214 
L 329.984523 181.548271 
L 331.455614 181.703144 
L 331.607795 181.747945 
L 331.759977 181.772977 
L 331.912159 181.732792 
L 332.064341 181.873059 
L 332.216523 181.819203 
L 332.317977 181.844654 
L 332.470159 181.79912 
L 332.622341 181.888927 
L 332.673068 181.757262 
L 332.82525 181.953673 
L 332.926705 181.895034 
L 333.078886 181.960305 
L 333.180341 181.911405 
L 333.332523 181.994264 
L 333.586159 182.026555 
L 333.789068 182.020134 
L 333.94125 182.017315 
L 333.991977 182.099559 
L 334.042705 182.060839 
L 334.093432 181.996476 
L 334.144159 182.060658 
L 334.651432 182.232499 
L 334.752886 182.104542 
L 334.803614 182.189428 
L 334.854341 182.142498 
L 335.006523 182.192939 
L 335.158705 182.243817 
L 335.260159 182.109319 
L 335.310886 182.203349 
L 335.564523 182.246799 
L 335.61525 182.321828 
L 335.665977 182.239699 
L 335.868886 182.319657 
L 335.970341 182.341469 
L 336.021068 182.232135 
L 336.071795 182.316119 
L 336.223977 182.29004 
L 336.376159 182.455678 
L 336.528341 182.367721 
L 336.934159 182.50584 
L 337.086341 182.43825 
L 337.492159 182.544159 
L 337.644341 182.521321 
L 337.796523 182.635706 
L 337.948705 182.621731 
L 337.999432 182.638012 
L 338.050159 182.532462 
L 338.151614 182.706594 
L 338.303795 182.649371 
L 338.354523 182.594591 
L 338.40525 182.642832 
L 338.608159 182.711051 
L 338.709614 182.687103 
L 338.96325 182.772227 
L 339.115432 182.754634 
L 339.267614 182.724164 
L 339.419795 182.883471 
L 339.571977 182.847702 
L 339.876341 182.860506 
L 340.028523 182.928421 
L 340.07925 182.853424 
L 340.129977 182.898356 
L 341.347432 183.166253 
L 341.398159 183.066991 
L 341.448886 183.136307 
L 341.601068 183.155229 
L 341.803977 183.121283 
L 341.854705 183.256972 
L 341.905432 183.214289 
L 341.956159 183.18599 
L 342.108341 183.264959 
L 342.159068 183.330807 
L 342.209795 183.177772 
L 342.260523 183.271133 
L 342.361977 183.318034 
L 342.412705 183.221908 
L 342.463432 183.319756 
L 343.528705 183.434612 
L 343.630159 183.518395 
L 343.731614 183.40052 
L 343.782341 183.59286 
L 343.833068 183.499205 
L 343.98525 183.460278 
L 344.035977 183.618135 
L 344.086705 183.554928 
L 344.391068 183.486937 
L 344.441795 183.622788 
L 344.54325 183.582922 
L 344.695432 183.660225 
L 344.796886 183.648018 
L 344.847614 183.55958 
L 344.898341 183.643183 
L 345.202705 183.66477 
L 345.304159 183.825198 
L 345.354886 183.79498 
L 345.507068 183.788879 
L 345.557795 183.635961 
L 345.608523 183.799789 
L 345.963614 183.78322 
L 346.014341 183.944788 
L 346.065068 183.849135 
L 346.318705 183.84467 
L 346.420159 183.960198 
L 346.470886 183.818534 
L 346.521614 183.934245 
L 346.673795 183.889451 
L 346.77525 184.015515 
L 346.825977 183.938595 
L 346.876705 183.978344 
L 346.927432 184.053807 
L 346.978159 183.906074 
L 347.028886 184.082928 
L 347.181068 183.965453 
L 347.33325 184.161037 
L 347.383977 184.073521 
L 348.44925 184.203928 
L 348.499977 184.366474 
L 348.550705 184.277034 
L 348.601432 184.152953 
L 348.652159 184.32914 
L 348.702886 184.291474 
L 348.753614 184.251659 
L 348.804341 184.366014 
L 348.855068 184.28716 
L 349.00725 184.313965 
L 349.159432 184.400978 
L 349.210159 184.26949 
L 349.260886 184.322176 
L 349.717432 184.530234 
L 349.768159 184.400074 
L 349.869614 184.443612 
L 350.072523 184.44658 
L 350.224705 184.504912 
L 350.376886 184.523718 
L 350.427614 184.471785 
L 350.478341 184.641796 
L 350.529068 184.608708 
L 350.630523 184.589538 
L 350.731977 184.670411 
L 350.782705 184.543482 
L 350.833432 184.612694 
L 351.645068 184.746998 
L 351.79725 184.847898 
L 351.898705 184.76007 
L 352.000159 184.88318 
L 352.050886 184.78064 
L 352.101614 184.88911 
L 352.203068 184.767474 
L 352.253795 184.890666 
L 352.35525 184.970733 
L 352.405977 184.791134 
L 352.456705 184.842119 
L 352.659614 184.958481 
L 352.710341 184.844601 
L 352.761068 184.936487 
L 352.811795 184.983004 
L 352.862523 184.883576 
L 353.065432 184.877289 
L 353.217614 185.067936 
L 353.319068 185.045204 
L 353.369795 185.121461 
L 353.420523 185.043648 
L 353.623432 185.081461 
L 353.674159 185.00323 
L 353.775614 185.19771 
L 353.826341 185.149576 
L 353.927795 185.112372 
L 354.02925 185.218806 
L 354.130705 185.088051 
L 354.333614 185.247389 
L 355.601795 185.374995 
L 355.652523 185.319909 
L 355.70325 185.41567 
L 355.855432 185.496581 
L 355.906159 185.403628 
L 355.956886 185.442451 
L 356.109068 185.552982 
L 356.362705 185.463148 
L 356.413432 185.599921 
L 356.464159 185.540508 
L 357.275795 185.69454 
L 357.326523 185.574613 
L 357.478705 185.772268 
L 357.630886 185.79697 
L 357.681614 185.829471 
L 357.783068 185.702089 
L 357.833795 185.755952 
L 357.884523 185.747075 
L 358.036705 185.847422 
L 358.341068 185.838061 
L 358.797614 185.964909 
L 358.848341 186.054644 
L 358.899068 185.992309 
L 358.949795 185.913491 
L 359.000523 186.005752 
L 359.152705 185.959037 
L 359.304886 186.062996 
L 359.355614 185.992931 
L 359.406341 186.057513 
L 359.558523 186.131875 
L 359.60925 185.958318 
L 359.659977 186.167919 
L 359.710705 186.038624 
L 359.761432 186.116897 
L 359.862886 186.191682 
L 359.964341 186.092571 
L 360.116523 186.17264 
L 360.16725 186.089245 
L 360.217977 186.144419 
L 360.72525 186.227066 
L 360.775977 186.208658 
L 360.928159 186.306617 
L 361.131068 186.287408 
L 361.28325 186.554936 
L 361.435432 186.299859 
L 361.536886 186.543601 
L 361.638341 186.409795 
L 361.84125 186.431186 
L 361.891977 186.565889 
L 361.942705 186.389257 
L 361.993432 186.367815 
L 362.044159 186.593141 
L 362.094886 186.533167 
L 362.196341 186.450259 
L 362.348523 186.617219 
L 362.500705 186.565936 
L 362.703614 186.62664 
L 362.754341 186.495884 
L 362.855795 186.707119 
L 362.906523 186.506569 
L 362.95725 186.682197 
L 363.007977 186.717442 
L 363.058705 186.633153 
L 363.109432 186.575884 
L 363.160159 186.683406 
L 363.210886 186.850369 
L 363.261614 186.799768 
L 363.312341 186.628844 
L 363.413795 186.669156 
L 363.51525 186.836857 
L 363.565977 186.76567 
L 363.768886 186.822948 
L 363.971795 186.774307 
L 364.07325 186.84588 
L 364.123977 186.680092 
L 364.174705 186.86611 
L 364.276159 186.897925 
L 364.428341 186.964173 
L 364.479068 186.865452 
L 364.529795 186.903905 
L 364.732705 187.011639 
L 364.834159 186.86719 
L 364.884886 186.901678 
L 364.935614 187.078187 
L 364.986341 186.982212 
L 365.087795 186.912816 
L 365.239977 187.056665 
L 365.74725 187.097858 
L 366.000886 187.182169 
L 366.203795 187.200375 
L 366.254523 187.316221 
L 366.30525 187.111381 
L 366.355977 187.160275 
L 366.812523 187.287277 
L 366.86325 187.251704 
L 367.015432 187.365105 
L 367.066159 187.419592 
L 367.116886 187.366158 
L 367.269068 187.372287 
L 367.42125 187.51196 
L 367.624159 187.444321 
L 369.196705 187.698218 
L 369.247432 187.842499 
L 369.298159 187.661347 
L 369.348886 187.632704 
L 369.501068 187.747997 
L 369.805432 187.905086 
L 369.856159 187.692588 
L 369.906886 187.800757 
L 370.059068 187.955333 
L 370.109795 187.74938 
L 370.160523 187.806971 
L 370.363432 187.88015 
L 371.276523 188.064515 
L 371.530159 188.09906 
L 371.580886 188.133506 
L 371.631614 187.964431 
L 371.682341 188.16184 
L 371.733068 188.116239 
L 371.783795 188.227096 
L 371.834523 188.098477 
L 371.88525 188.044189 
L 372.037432 188.372689 
L 372.189614 188.09467 
L 372.341795 188.211465 
L 372.44325 188.198192 
L 372.493977 188.134939 
L 372.544705 188.402161 
L 372.595432 188.189047 
L 372.696886 188.345173 
L 372.747614 188.219611 
L 372.849068 188.26866 
L 372.899795 188.406321 
L 372.950523 188.287371 
L 373.051977 188.382783 
L 373.102705 188.319999 
L 373.254886 188.483975 
L 373.305614 188.306347 
L 373.356341 188.425339 
L 373.508523 188.403964 
L 373.55925 188.533883 
L 373.609977 188.392261 
L 373.965068 188.51038 
L 374.015795 188.382023 
L 374.066523 188.626623 
L 374.11725 188.512553 
L 374.370886 188.543933 
L 374.523068 188.618901 
L 374.624523 188.547917 
L 374.725977 188.663532 
L 374.878159 188.46078 
L 374.928886 188.58263 
L 375.131795 188.687267 
L 375.639068 188.772672 
L 375.740523 188.750129 
L 375.892705 188.782095 
L 375.943432 188.757754 
L 375.994159 188.9185 
L 376.044886 188.880606 
L 376.197068 188.802785 
L 376.399977 188.902979 
L 376.501432 188.910714 
L 376.704341 188.92956 
L 376.805795 188.960579 
L 376.957977 189.058715 
L 377.008705 188.883838 
L 377.059432 188.943126 
L 377.110159 189.069118 
L 377.160886 189.009392 
L 377.211614 188.944801 
L 377.363795 189.133202 
L 377.46525 188.985663 
L 377.617432 189.08712 
L 377.921795 189.240829 
L 377.972523 189.031706 
L 378.02325 189.296274 
L 378.073977 189.102797 
L 378.124705 189.16144 
L 378.175432 189.032604 
L 378.327614 189.233669 
L 378.378341 189.112642 
L 378.429068 189.20855 
L 378.631977 189.254926 
L 378.682705 189.196244 
L 378.733432 189.302009 
L 378.784159 189.34631 
L 378.936341 189.254527 
L 379.088523 189.434978 
L 379.13925 189.245319 
L 379.189977 189.387601 
L 379.392886 189.436157 
L 379.545068 189.383337 
L 379.747977 189.452296 
L 379.900159 189.494697 
L 379.950886 189.396569 
L 380.001614 189.502804 
L 380.305977 189.511026 
L 380.407432 189.60786 
L 380.458159 189.515183 
L 380.508886 189.580046 
L 380.610341 189.570602 
L 380.661068 189.498086 
L 380.711795 189.554027 
L 380.863977 189.585534 
L 381.016159 189.51251 
L 381.117614 189.742386 
L 381.168341 189.611985 
L 381.219068 189.6991 
L 381.574159 189.693678 
L 381.726341 189.827704 
L 381.92925 189.675603 
L 382.081432 189.798937 
L 382.233614 189.899602 
L 382.284341 189.8018 
L 382.335068 189.858776 
L 382.740886 189.893039 
L 382.842341 189.999102 
L 382.893068 189.821426 
L 382.943795 189.935557 
L 383.095977 189.99631 
L 383.146705 190.034812 
L 383.298886 189.946795 
L 383.653977 190.089813 
L 383.755432 190.018426 
L 383.907614 190.07919 
L 383.958341 190.019664 
L 384.009068 190.147193 
L 384.059795 190.094101 
L 384.110523 190.021169 
L 384.16125 190.109156 
L 384.211977 190.199113 
L 384.262705 190.021568 
L 384.313432 190.195192 
L 384.516341 190.103137 
L 384.567068 190.226706 
L 384.617795 190.138972 
L 384.71925 190.238732 
L 384.769977 190.070676 
L 384.820705 190.24349 
L 384.871432 190.177137 
L 385.023614 190.260581 
L 385.175795 190.253657 
L 385.27725 190.202579 
L 385.429432 190.366702 
L 385.632341 190.282988 
L 385.83525 190.428226 
L 385.987432 190.384401 
L 386.139614 190.367186 
L 386.291795 190.420785 
L 386.342523 190.370293 
L 386.494705 190.54293 
L 386.646886 190.373638 
L 386.748341 190.503342 
L 386.799068 190.460185 
L 386.849795 190.459648 
L 386.900523 190.603885 
L 386.95125 190.554865 
L 387.204886 190.543957 
L 387.306341 190.618273 
L 387.357068 190.444412 
L 387.407795 190.594635 
L 387.559977 190.595153 
L 387.610705 190.561119 
L 387.762886 190.67222 
L 387.813614 190.720737 
L 387.965795 190.642807 
L 388.016523 190.723791 
L 388.06725 190.646043 
L 388.168705 190.644031 
L 388.219432 190.85516 
L 388.270159 190.624614 
L 388.320886 190.701883 
L 388.371614 190.644767 
L 388.473068 190.741266 
L 388.62525 190.806183 
L 388.726705 190.807477 
L 388.777432 190.68243 
L 388.828159 190.726901 
L 388.929614 190.845221 
L 388.980341 190.764424 
L 389.031068 190.767945 
L 389.081795 190.899544 
L 389.132523 190.845176 
L 389.233977 190.776127 
L 389.386159 190.89032 
L 389.791977 190.943382 
L 389.944159 190.977019 
L 389.994886 191.012882 
L 390.045614 190.881324 
L 390.096341 190.932803 
L 390.29925 191.023932 
L 391.009432 191.109772 
L 391.060159 191.04713 
L 391.110886 191.106808 
L 391.516705 191.184694 
L 391.668886 191.162205 
L 391.719614 191.225449 
L 391.770341 191.138364 
L 391.922523 191.204085 
L 392.074705 191.317252 
L 392.125432 191.359364 
L 392.176159 191.228552 
L 392.226886 191.296448 
L 392.581977 191.345759 
L 392.734159 191.280781 
L 392.886341 191.449344 
L 392.937068 191.391925 
L 393.139977 191.394661 
L 393.190705 191.498852 
L 393.241432 191.438127 
L 393.292159 191.391012 
L 393.342886 191.484079 
L 393.64725 191.45585 
L 393.799432 191.545695 
L 393.850159 191.487443 
L 393.900886 191.544961 
L 394.154523 191.558622 
L 394.20525 191.479184 
L 394.255977 191.654692 
L 394.357432 191.606734 
L 394.408159 191.648082 
L 394.560341 191.542969 
L 394.611068 191.729785 
L 394.661795 191.649097 
L 394.712523 191.562381 
L 394.76325 191.702962 
L 394.813977 191.658337 
L 395.016886 191.578415 
L 395.118341 191.759914 
L 395.169068 191.657288 
L 395.219795 191.738675 
L 395.473432 191.789497 
L 395.676341 191.700959 
L 395.777795 191.81865 
L 395.828523 191.738698 
L 395.87925 191.829447 
L 396.234341 191.774631 
L 396.285068 191.884945 
L 396.335795 191.764903 
L 396.386523 191.753842 
L 396.487977 191.992673 
L 396.538705 191.814968 
L 396.640159 191.860864 
L 396.690886 191.956746 
L 396.741614 191.878029 
L 396.944523 191.917512 
L 397.096705 191.942607 
L 399.277977 192.270477 
L 399.328705 192.341394 
L 399.379432 192.232542 
L 399.531614 192.292944 
L 399.683795 192.293249 
L 399.734523 192.222301 
L 399.78525 192.325033 
L 400.799795 192.457055 
L 400.951977 192.467695 
L 401.256341 192.416202 
L 402.169432 192.619201 
L 402.220159 192.500159 
L 402.270886 192.547948 
L 402.473795 192.599034 
L 402.625977 192.626689 
L 403.082523 192.665045 
L 403.285432 192.708083 
L 403.336159 192.687541 
L 403.386886 192.822546 
L 403.437614 192.716541 
L 403.589795 192.683816 
L 403.741977 192.773241 
L 403.792705 192.86927 
L 403.843432 192.778377 
L 404.24925 192.84173 
L 404.299977 192.755459 
L 404.350705 192.858559 
L 404.452159 192.885895 
L 404.502886 192.765588 
L 404.553614 192.939311 
L 404.604341 192.782697 
L 404.705795 192.880804 
L 404.756523 192.843129 
L 404.908705 192.931721 
L 404.959432 192.817692 
L 405.010159 192.912468 
L 405.060886 192.954447 
L 405.111614 192.88463 
L 405.415977 192.950004 
L 405.669614 192.978658 
L 405.720341 192.903041 
L 405.771068 192.977151 
L 406.379795 193.107041 
L 406.531977 193.040124 
L 406.684159 193.113492 
L 406.887068 193.061703 
L 407.03925 193.151086 
L 407.647977 193.181689 
L 408.003068 193.223764 
L 408.053795 193.148501 
L 408.104523 193.225209 
L 408.307432 193.285636 
L 408.763977 193.279192 
L 408.814705 193.362137 
L 408.865432 193.321196 
L 409.321977 193.360965 
L 409.423432 193.425029 
L 409.575614 193.350429 
L 409.727795 193.4816 
L 409.778523 193.423237 
L 410.082886 193.493672 
L 410.235068 193.480068 
L 410.437977 193.474648 
L 410.590159 193.442834 
L 410.742341 193.56056 
L 410.843795 193.467017 
L 410.894523 193.531531 
L 411.097432 193.567982 
L 411.198886 193.60046 
L 411.249614 193.649489 
L 411.300341 193.537247 
L 411.351068 193.574163 
L 411.401795 193.654997 
L 411.452523 193.587891 
L 411.959795 193.662258 
L 412.010523 193.567547 
L 412.06125 193.679699 
L 412.365614 193.696463 
L 412.923614 193.753995 
L 413.227977 193.80321 
L 413.329432 193.792474 
L 413.380159 193.725839 
L 413.430886 193.813159 
L 413.583068 193.84805 
L 413.684523 193.806587 
L 413.836705 193.871358 
L 414.039614 193.812392 
L 414.597614 193.898616 
L 414.749795 193.917027 
L 414.901977 193.909111 
L 415.104886 193.928873 
L 415.257068 193.970689 
L 415.358523 193.97403 
L 415.40925 194.048336 
L 415.459977 193.966681 
L 416.728159 194.101181 
L 416.880341 194.133898 
L 417.032523 194.086893 
L 417.286159 194.146548 
L 417.438341 194.078102 
L 417.590523 194.206502 
L 417.691977 194.179406 
L 417.945614 194.20938 
L 421.445795 194.493633 
L 421.496523 194.422702 
L 421.54725 194.477816 
L 422.66325 194.561533 
L 422.866159 194.559561 
L 422.967614 194.646892 
L 423.018341 194.561856 
L 423.069068 194.594134 
L 423.424159 194.629396 
L 424.33725 194.699595 
L 424.387977 194.772535 
L 424.438705 194.710778 
L 424.540159 194.709408 
L 424.590886 194.799267 
L 424.641614 194.671355 
L 424.793795 194.716162 
L 425.047432 194.75137 
L 425.706886 194.741799 
L 425.909795 194.79331 
L 426.366341 194.828524 
L 426.873614 194.857286 
L 427.533068 194.925021 
L 428.395432 194.937744 
L 428.547614 194.962171 
L 429.156341 195.002918 
L 429.511432 195.003331 
L 430.323068 195.063454 
L 430.627432 195.087761 
L 436.461068 195.332763 
L 440.417795 195.486533 
L 440.620705 195.516527 
L 440.925068 195.505291 
L 441.533795 195.536136 
L 442.243977 195.553774 
L 442.852705 195.591319 
L 443.055614 195.576531 
L 443.562886 195.598632 
L 443.715068 195.597584 
L 445.287614 195.640409 
L 445.896341 195.644279 
L 449.092159 195.695398 
L 449.44725 195.695019 
L 450.055977 195.698001 
L 451.67925 195.720931 
L 452.186523 195.717361 
L 452.896705 195.724898 
L 474.861614 195.307853 
L 475.267432 195.303794 
L 475.521068 195.285147 
L 475.876159 195.237408 
L 476.028341 195.265937 
L 476.180523 195.25963 
L 476.332705 195.270343 
L 477.042886 195.225969 
L 478.818341 195.120941 
L 478.970523 195.159249 
L 479.376341 195.105912 
L 479.629977 195.122222 
L 479.782159 195.124015 
L 488.152159 194.657061 
L 488.253614 194.631665 
L 488.405795 194.644407 
L 488.710159 194.633564 
L 490.637795 194.508238 
L 490.789977 194.500166 
L 490.942159 194.508737 
L 491.246523 194.451615 
L 491.449432 194.481405 
L 491.652341 194.410135 
L 491.85525 194.420793 
L 492.058159 194.405206 
L 492.108886 194.455377 
L 492.159614 194.378016 
L 497.283068 194.055303 
L 497.333795 194.118202 
L 497.384523 194.021593 
L 497.739614 194.063392 
L 497.891795 193.955861 
L 498.094705 194.038553 
L 498.196159 193.945904 
L 498.297614 193.98644 
L 498.500523 193.952993 
L 498.754159 193.90483 
L 498.957068 193.960732 
L 499.10925 193.879026 
L 499.362886 193.886895 
L 499.66725 193.849057 
L 499.819432 193.850237 
L 500.174523 193.78551 
L 501.391977 193.749185 
L 501.544159 193.707451 
L 502.051432 193.703543 
L 502.254341 193.629502 
L 502.305068 193.705379 
L 502.355795 193.648373 
L 505.297977 193.413795 
L 505.348705 193.507805 
L 505.399432 193.428146 
L 505.551614 193.40866 
L 505.906705 193.405772 
L 506.058886 193.304267 
L 506.211068 193.397561 
L 506.36325 193.31636 
L 506.515432 193.337954 
L 506.667614 193.272014 
L 506.819795 193.343089 
L 506.971977 193.249912 
L 507.073432 193.309317 
L 507.276341 193.277419 
L 507.529977 193.278037 
L 507.732886 193.200974 
L 507.935795 193.20955 
L 508.087977 193.196005 
L 508.290886 193.231731 
L 508.341614 193.129246 
L 508.392341 193.179476 
L 508.747432 193.138469 
L 508.950341 193.057914 
L 509.102523 193.147292 
L 509.356159 193.090781 
L 509.508341 193.084693 
L 509.609795 193.053116 
L 509.71125 193.005693 
L 513.566523 192.726017 
L 513.61725 192.833016 
L 513.667977 192.725456 
L 514.73325 192.684008 
L 514.783977 192.569575 
L 514.834705 192.600988 
L 514.986886 192.664798 
L 515.139068 192.567969 
L 515.84925 192.526043 
L 516.052159 192.520723 
L 516.204341 192.487953 
L 516.96525 192.395819 
L 517.015977 192.452511 
L 517.066705 192.370122 
L 517.218886 192.451938 
L 517.573977 192.393309 
L 517.624705 192.331689 
L 517.675432 192.376926 
L 517.776886 192.433295 
L 517.929068 192.33503 
L 518.284159 192.271092 
L 518.436341 192.317605 
L 518.791432 192.24297 
L 518.994341 192.272537 
L 519.400159 192.224202 
L 519.907432 192.17144 
L 519.958159 192.275883 
L 520.008886 192.242913 
L 520.059614 192.105166 
L 520.110341 192.169928 
L 520.161068 192.197725 
L 520.211795 192.094722 
L 520.262523 192.168157 
L 520.668341 192.098159 
L 520.769795 192.165439 
L 520.921977 192.001964 
L 520.972705 192.130451 
L 521.023432 192.016285 
L 521.226341 192.049399 
L 521.277068 191.981545 
L 521.327795 192.038658 
L 521.479977 192.085871 
L 521.581432 191.967309 
L 521.632159 192.072981 
L 521.733614 191.897254 
L 521.784341 191.966058 
L 521.885795 192.054309 
L 521.936523 192.018948 
L 522.037977 191.925854 
L 522.240886 192.005991 
L 522.393068 191.864667 
L 522.494523 191.965183 
L 522.54525 191.914968 
L 522.849614 191.882054 
L 522.951068 191.861275 
L 523.052523 191.794685 
L 523.10325 191.872666 
L 523.153977 191.858384 
L 523.204705 191.973849 
L 523.255432 191.832646 
L 523.306159 191.912559 
L 523.356886 191.794647 
L 523.509068 191.832063 
L 523.610523 191.790026 
L 523.66125 191.910748 
L 523.711977 191.763395 
L 523.965614 191.748465 
L 524.117795 191.82472 
L 524.21925 191.739796 
L 524.269977 191.781338 
L 524.422159 191.731987 
L 524.523614 191.771346 
L 524.574341 191.675469 
L 524.625068 191.744548 
L 524.827977 191.755648 
L 524.929432 191.655336 
L 524.980159 191.722241 
L 525.030886 191.631872 
L 525.385977 191.647902 
L 525.487432 191.581476 
L 525.538159 191.720526 
L 525.588886 191.621598 
L 525.943977 191.639281 
L 526.197614 191.487817 
L 526.299068 191.590646 
L 526.400523 191.447783 
L 526.552705 191.564308 
L 527.00925 191.432524 
L 527.059977 191.547399 
L 527.110705 191.502734 
L 527.212159 191.454806 
L 527.262886 191.538216 
L 527.313614 191.464981 
L 527.617977 191.491023 
L 527.719432 191.353811 
L 527.770159 191.441875 
L 527.973068 191.397256 
L 528.023795 191.412243 
L 528.074523 191.291375 
L 528.12525 191.479501 
L 528.175977 191.397462 
L 528.378886 191.288181 
L 528.429614 191.270137 
L 528.480341 191.397847 
L 528.531068 191.374662 
L 528.68325 191.275709 
L 528.886159 191.363695 
L 529.393432 191.177749 
L 529.494886 191.309502 
L 529.545614 191.253134 
L 529.697795 191.268961 
L 529.900705 191.137629 
L 530.052886 191.265993 
L 530.91525 191.101546 
L 530.965977 191.167129 
L 531.016705 191.107552 
L 535.93725 190.616727 
L 535.987977 190.700114 
L 536.089432 190.559609 
L 536.292341 190.620745 
L 537.814159 190.427335 
L 538.118523 190.445688 
L 538.270705 190.384818 
L 538.372159 190.398435 
L 538.524341 190.320942 
L 538.72725 190.373339 
L 538.777977 190.407557 
L 538.828705 190.311614 
L 538.879432 190.265567 
L 538.930159 190.386282 
L 538.980886 190.323085 
L 539.386705 190.275534 
L 539.437432 190.156346 
L 539.488159 190.260816 
L 539.589614 190.235227 
L 539.640341 190.308184 
L 539.691068 190.165677 
L 539.792523 190.207159 
L 539.944705 190.263262 
L 540.096886 190.173255 
L 540.299795 190.178016 
L 540.451977 190.155404 
L 541.111432 190.135044 
L 541.162159 190.021393 
L 541.212886 190.135956 
L 541.365068 190.10686 
L 541.567977 190.081069 
L 541.618705 189.988036 
L 541.669432 190.021376 
L 541.872341 190.111938 
L 542.07525 189.959228 
L 542.125977 190.076022 
L 542.176705 190.002087 
L 542.227432 189.977293 
L 542.379614 190.077177 
L 542.481068 189.9993 
L 542.531795 190.039144 
L 542.785432 189.977406 
L 542.836159 190.038657 
L 542.937614 189.885315 
L 542.988341 189.938971 
L 543.089795 189.86558 
L 543.394159 189.81252 
L 543.597068 189.87397 
L 543.74925 189.777255 
L 543.799977 189.858772 
L 543.850705 189.815481 
L 543.901432 189.760488 
L 543.952159 189.873091 
L 544.002886 189.808827 
L 544.30725 189.822034 
L 544.459432 189.73022 
L 545.321795 189.666038 
L 545.372523 189.712254 
L 545.524705 189.600628 
L 545.575432 189.692525 
L 545.626159 189.624727 
L 545.778341 189.633848 
L 545.829068 189.73582 
L 545.879795 189.621684 
L 546.742159 189.436787 
L 546.792886 189.578863 
L 546.843614 189.466253 
L 547.198705 189.512494 
L 547.503068 189.407613 
L 547.553795 189.485495 
L 547.604523 189.437635 
L 548.619068 189.400202 
L 548.669795 189.247506 
L 548.720523 189.277 
L 548.77125 189.414768 
L 548.821977 189.29747 
L 548.923432 189.37745 
L 548.974159 189.274709 
L 549.024886 189.22135 
L 549.075614 189.33238 
L 549.126341 189.293881 
L 549.278523 189.136459 
L 549.430705 189.342342 
L 549.532159 189.221586 
L 549.582886 189.304052 
L 549.633614 189.236274 
L 554.300523 188.779787 
L 554.35125 188.855476 
L 554.401977 188.739608 
L 554.604886 188.730385 
L 554.959977 188.699526 
L 555.112159 188.578001 
L 555.315068 188.732306 
L 555.517977 188.537917 
L 555.670159 188.671818 
L 555.771614 188.625221 
L 555.923795 188.502847 
L 556.126705 188.626607 
L 556.278886 188.538551 
L 556.431068 188.576684 
L 556.481795 188.47435 
L 556.532523 188.640826 
L 556.58325 188.538895 
L 556.735432 188.460175 
L 556.786159 188.590141 
L 556.836886 188.467787 
L 556.938341 188.534362 
L 557.090523 188.43353 
L 557.191977 188.444397 
L 557.242705 188.311603 
L 557.293432 188.360606 
L 557.445614 188.432035 
L 557.496341 188.369544 
L 557.547068 188.459098 
L 557.952886 188.291173 
L 558.105068 188.396764 
L 558.155795 188.334554 
L 558.206523 188.457766 
L 558.25725 188.366758 
L 558.307977 188.273834 
L 558.358705 188.314218 
L 558.510886 188.321599 
L 558.561614 188.184653 
L 558.612341 188.313532 
L 559.37325 188.199616 
L 559.423977 188.287996 
L 559.474705 188.190958 
L 559.576159 188.084132 
L 559.728341 188.265123 
L 559.880523 188.155608 
L 560.032705 188.219179 
L 560.083432 188.136662 
L 560.134159 188.215269 
L 560.945795 188.066774 
L 561.04725 188.074655 
L 561.351614 187.942079 
L 561.503795 188.038608 
L 561.60525 187.911891 
L 561.757432 188.045498 
L 561.808159 187.907563 
L 561.909614 187.952101 
L 563.532886 187.752264 
L 563.685068 187.755559 
L 563.83725 187.761731 
L 564.445977 187.76166 
L 564.547432 187.671358 
L 564.699614 187.751635 
L 564.902523 187.637018 
L 565.054705 187.696182 
L 565.359068 187.658619 
L 565.409795 187.690917 
L 565.561977 187.584247 
L 565.612705 187.653216 
L 565.714159 187.511203 
L 565.815614 187.603563 
L 566.018523 187.524858 
L 566.119977 187.585228 
L 566.170705 187.505549 
L 566.272159 187.490864 
L 566.424341 187.549959 
L 567.18525 187.381677 
L 567.235977 187.561205 
L 567.286705 187.396497 
L 567.337432 187.343369 
L 567.388159 187.411987 
L 567.591068 187.497452 
L 567.74325 187.396213 
L 567.793977 187.338534 
L 567.844705 187.384934 
L 567.946159 187.396668 
L 568.098341 187.318996 
L 568.351977 187.389879 
L 568.504159 187.277328 
L 568.554886 187.369649 
L 568.605614 187.25394 
L 569.062159 187.325862 
L 569.214341 187.17507 
L 569.366523 187.217997 
L 569.467977 187.331272 
L 569.620159 187.189797 
L 569.823068 187.186962 
L 569.97525 187.156915 
L 570.025977 187.08075 
L 570.076705 187.134656 
L 570.228886 187.274001 
L 570.381068 187.066596 
L 570.583977 187.187671 
L 570.685432 187.061466 
L 570.736159 187.097405 
L 570.989795 187.024546 
L 571.09125 187.025705 
L 571.141977 187.143024 
L 571.192705 187.050505 
L 571.294159 186.991493 
L 571.446341 187.069414 
L 571.497068 186.955148 
L 571.547795 187.089924 
L 571.750705 186.964919 
L 572.004341 186.979889 
L 572.055068 187.045483 
L 572.105795 186.968245 
L 572.257977 186.871277 
L 572.410159 186.951753 
L 572.562341 186.869252 
L 572.76525 186.971052 
L 572.968159 186.819518 
L 573.120341 186.870806 
L 573.830523 186.774621 
L 573.931977 186.788307 
L 574.084159 186.731117 
L 574.287068 186.799039 
L 574.337795 186.805801 
L 574.489977 186.718585 
L 574.642159 186.695722 
L 575.149432 186.596815 
L 575.352341 186.700671 
L 575.403068 186.541637 
L 575.504523 186.582678 
L 575.55525 186.692545 
L 575.605977 186.633307 
L 575.758159 186.561136 
L 575.859614 186.651746 
L 575.910341 186.517882 
L 576.011795 186.561384 
L 576.163977 186.583094 
L 576.214705 186.640032 
L 576.265432 186.487272 
L 576.316159 186.544189 
L 576.417614 186.579006 
L 576.417614 186.579006 
" clip-path="url(#p04ce2f9cf4)" style="fill: none; stroke: #1f77b4; stroke-width: 1.5; stroke-linecap: square"/>
   </g>
   <g id="patch_3">
    <path d="M 43.78125 354.958125 
L 43.78125 22.318125 
" style="fill: none; stroke: #000000; stroke-width: 0.8; stroke-linejoin: miter; stroke-linecap: square"/>
   </g>
   <g id="patch_4">
    <path d="M 601.78125 354.958125 
L 601.78125 22.318125 
" style="fill: none; stroke: #000000; stroke-width: 0.8; stroke-linejoin: miter; stroke-linecap: square"/>
   </g>
   <g id="patch_5">
    <path d="M 43.78125 354.958125 
L 601.78125 354.958125 
" style="fill: none; stroke: #000000; stroke-width: 0.8; stroke-linejoin: miter; stroke-linecap: square"/>
   </g>
   <g id="patch_6">
    <path d="M 43.78125 22.318125 
L 601.78125 22.318125 
" style="fill: none; stroke: #000000; stroke-width: 0.8; stroke-linejoin: miter; stroke-linecap: square"/>
   </g>
   <g id="text_15">
    <!-- N upto 10K -->
    <g transform="translate(289.274063 16.318125) scale(0.12 -0.12)">
     <defs>
      <path id="DejaVuSans-70" d="M 1159 525 
L 1159 -1331 
L 581 -1331 
L 581 3500 
L 1159 3500 
L 1159 2969 
Q 1341 3281 1617 3432 
Q 1894 3584 2278 3584 
Q 2916 3584 3314 3078 
Q 3713 2572 3713 1747 
Q 3713 922 3314 415 
Q 2916 -91 2278 -91 
Q 1894 -91 1617 61 
Q 1341 213 1159 525 
z
M 3116 1747 
Q 3116 2381 2855 2742 
Q 2594 3103 2138 3103 
Q 1681 3103 1420 2742 
Q 1159 2381 1159 1747 
Q 1159 1113 1420 752 
Q 1681 391 2138 391 
Q 2594 391 2855 752 
Q 3116 1113 3116 1747 
z
" transform="scale(0.015625)"/>
      <path id="DejaVuSans-4b" d="M 628 4666 
L 1259 4666 
L 1259 2694 
L 3353 4666 
L 4166 4666 
L 1850 2491 
L 4331 0 
L 3500 0 
L 1259 2247 
L 1259 0 
L 628 0 
L 628 4666 
z
" transform="scale(0.015625)"/>
     </defs>
     <use xlink:href="#DejaVuSans-4e"/>
     <use xlink:href="#DejaVuSans-20" x="74.804688"/>
     <use xlink:href="#DejaVuSans-75" x="106.591797"/>
     <use xlink:href="#DejaVuSans-70" x="169.970703"/>
     <use xlink:href="#DejaVuSans-74" x="233.447266"/>
     <use xlink:href="#DejaVuSans-6f" x="272.65625"/>
     <use xlink:href="#DejaVuSans-20" x="333.837891"/>
     <use xlink:href="#DejaVuSans-31" x="365.625"/>
     <use xlink:href="#DejaVuSans-30" x="429.248047"/>
     <use xlink:href="#DejaVuSans-4b" x="492.871094"/>
    </g>
   </g>
  </g>
 </g>
 <defs>
  <clipPath id="p04ce2f9cf4">
   <rect x="43.78125" y="22.318125" width="558" height="332.64"/>
  </clipPath>
 </defs>
</svg>
